<?xml version="1.0" encoding="utf-8"?>
<!-- Generator: Adobe Illustrator 13.0.2, SVG Export Plug-In . SVG Version: 6.00 Build 14948)  -->
<!DOCTYPE svg PUBLIC "-//W3C//DTD SVG 1.1//EN" "http://www.w3.org/Graphics/SVG/1.1/DTD/svg11.dtd">
<svg version="1.1" id="Layer_1" xmlns="http://www.w3.org/2000/svg" xmlns:xlink="http://www.w3.org/1999/xlink" x="0px" y="0px"
	 width="719.891px" height="342.056px" viewBox="0 0 719.891 342.056" enable-background="new 0 0 719.891 342.056"
	 xml:space="preserve">
<g>
	<g>
		<defs>
			<polygon id="SVGID_1_" points="211.979,310.177 212.034,309.305 212.034,308.378 212.089,307.343 212.143,306.198 
				212.307,303.691 212.47,300.912 212.633,297.915 212.852,294.646 213.069,291.268 213.342,287.726 213.94,280.423 
				214.595,273.065 214.977,269.523 215.357,266.037 215.739,262.712 216.175,259.552 217.047,253.503 218.028,247.563 
				219.063,241.679 220.208,235.901 221.352,230.234 222.605,224.73 223.859,219.337 225.221,214.158 225.875,211.652 
				226.583,209.31 227.892,204.786 229.254,200.481 230.726,196.34 232.306,192.198 234.049,188.003 235.957,183.644 
				236.991,181.354 238.082,178.956 240.425,174.053 242.985,169.093 245.711,164.025 248.599,158.849 251.65,153.617 
				254.811,148.276 258.081,142.882 261.459,137.378 263.258,134.544 265.165,131.656 267.127,128.659 269.143,125.607 
				277.644,113.183 281.785,107.134 283.802,104.246 285.764,101.412 287.616,98.742 289.415,96.235 291.05,93.892 292.521,91.712 
				293.883,89.751 295.19,87.897 296.444,86.1 297.589,84.465 298.678,82.885 299.769,81.413 300.749,79.996 301.676,78.688 
				303.419,76.127 304.945,73.729 306.307,71.387 307.561,68.989 308.65,66.7 309.577,64.575 310.285,62.667 310.83,60.814 
				311.157,59.017 311.267,57.272 311.212,55.42 310.939,53.513 310.449,51.551 309.74,49.644 308.814,47.845 307.67,46.102 
				306.961,45.284 306.198,44.521 305.381,43.759 304.509,43.05 303.528,42.396 302.438,41.796 301.294,41.197 300.095,40.707 
				298.787,40.271 297.37,39.835 295.898,39.508 294.318,39.181 292.684,38.908 290.94,38.69 287.289,38.418 283.421,38.2 
				279.388,38.091 275.137,38.146 270.724,38.2 268.435,38.255 265.982,38.363 260.751,38.69 255.193,39.181 249.58,39.726 
				244.021,40.325 241.297,40.652 238.681,40.979 236.174,41.307 233.776,41.633 231.488,42.015 229.417,42.342 227.564,42.668 
				225.875,42.995 224.403,43.268 223.096,43.541 221.951,43.812 220.917,44.085 219.989,44.358 219.227,44.576 217.81,45.066 
				216.503,45.502 215.304,45.938 213.887,46.374 212.307,46.81 209.037,47.79 207.512,48.281 206.148,48.663 205.549,48.826 
				205.004,48.99 204.568,49.099 204.187,49.153 203.969,49.207 203.806,49.207 203.642,49.099 203.642,48.881 203.751,48.499 
				204.078,48.118 204.623,47.519 205.004,47.246 205.44,46.864 205.931,46.483 206.529,46.102 207.184,45.665 207.946,45.176 
				208.818,44.685 209.8,44.14 210.89,43.541 212.034,42.941 213.342,42.287 214.649,41.578 216.066,40.87 217.592,40.162 
				220.753,38.582 224.186,36.947 227.837,35.257 231.651,33.459 235.629,31.606 239.771,29.699 244.131,27.792 248.545,25.83 
				257.536,22.016 262.059,20.271 266.473,18.582 270.724,17.002 274.756,15.53 278.733,14.168 282.767,12.86 286.907,11.607 
				291.321,10.408 293.61,9.809 296.063,9.209 298.624,8.665 301.294,8.065 304.128,7.466 307.18,6.921 310.34,6.321 313.664,5.776 
				320.53,4.687 327.56,3.651 334.644,2.725 338.077,2.289 341.456,1.907 344.726,1.525 347.886,1.199 350.883,0.926 353.662,0.654 
				356.333,0.437 358.894,0.327 361.4,0.163 363.798,0.108 366.142,0.055 368.431,0 370.609,0 372.735,0.055 374.805,0.108 
				376.768,0.163 380.419,0.382 383.852,0.6 386.958,0.872 388.375,1.035 389.682,1.145 390.825,1.308 391.916,1.472 392.951,1.635 
				393.88,1.799 395.515,2.18 396.931,2.671 398.294,3.215 399.547,3.923 400.798,4.741 401.998,5.613 403.089,6.431 404.067,7.193 
				404.887,7.956 405.593,8.828 406.193,9.754 406.631,10.845 406.956,12.152 407.121,13.623 407.228,15.204 407.175,16.947 
				407.065,18.8 406.74,20.708 406.249,22.724 405.54,24.739 404.668,26.865 403.633,29.045 402.488,31.334 401.235,33.731 
				399.819,36.347 399.057,37.71 398.185,39.127 397.256,40.598 396.277,42.124 395.187,43.759 393.986,45.393 392.735,47.137 
				391.372,48.936 389.9,50.842 388.266,52.858 386.577,54.983 384.724,57.164 382.87,59.452 380.909,61.741 376.768,66.536 
				372.463,71.387 368.049,76.236 363.688,80.923 359.33,85.445 354.971,89.696 350.557,93.783 341.564,101.739 332.409,109.695 
				327.887,113.782 323.418,118.033 314.591,126.697 305.926,135.416 301.621,139.938 297.315,144.57 292.956,149.421 
				288.543,154.543 286.309,157.213 284.02,159.938 279.388,165.605 274.701,171.437 270.016,177.431 265.438,183.425 
				261.023,189.419 258.953,192.362 256.937,195.304 255.029,198.138 253.177,200.971 251.487,203.643 249.962,206.04 
				248.599,208.273 247.346,210.345 246.201,212.196 245.111,213.996 244.131,215.738 243.204,217.373 241.515,220.698 
				239.825,224.186 239.008,226.039 238.137,228.11 237.155,230.289 236.174,232.687 234.158,237.7 232.251,242.658 
				230.452,247.509 228.817,252.304 227.292,256.882 225.93,261.351 224.677,265.546 224.077,267.508 223.532,269.469 
				222.497,273.229 221.516,276.936 220.534,280.532 219.663,283.91 218.846,287.07 218.519,288.543 218.137,289.904 
				217.864,291.213 217.538,292.411 217.32,293.501 217.102,294.482 216.394,298.351 216.066,300.312 215.739,302.221 
				215.412,303.909 215.14,305.381 214.977,305.979 214.867,306.471 214.704,306.853 214.595,307.124 214.486,307.507 
				214.323,308.16 214.159,308.978 214.05,309.85 213.887,310.775 213.723,311.593 213.56,312.193 213.451,312.574 213.287,312.737 
				213.069,312.901 212.797,313.065 212.633,313.12 212.415,313.065 212.307,312.956 212.143,312.737 212.034,312.41 
				211.979,311.866 211.925,311.156 211.979,310.177 			"/>
		</defs>
		<linearGradient id="SVGID_2_" gradientUnits="userSpaceOnUse" x1="305.4351" y1="313.1201" x2="305.4351" y2="4.882812e-04">
			<stop  offset="0" style="stop-color:#FED3BE"/>
			<stop  offset="1" style="stop-color:#ED261A"/>
		</linearGradient>
		<use xlink:href="#SVGID_1_"  overflow="visible" fill-rule="evenodd" clip-rule="evenodd" fill="url(#SVGID_2_)"/>
		<clipPath id="SVGID_3_">
			<use xlink:href="#SVGID_1_"  overflow="visible"/>
		</clipPath>
	</g>
	<linearGradient id="SVGID_4_" gradientUnits="userSpaceOnUse" x1="128.5771" y1="336.2246" x2="128.5771" y2="16.0757">
		<stop  offset="0" style="stop-color:#FFE3D5"/>
		<stop  offset="1" style="stop-color:#ED261A"/>
	</linearGradient>
	<polygon fill-rule="evenodd" clip-rule="evenodd" fill="url(#SVGID_4_)" points="253.067,16.457 252.142,16.675 251.051,16.894 
		249.853,17.22 248.49,17.602 247.073,17.982 245.493,18.419 243.857,18.854 242.168,19.399 240.371,19.891 238.518,20.436 
		234.703,21.579 230.779,22.724 226.802,23.922 222.66,25.121 218.354,26.375 213.777,27.683 211.489,28.336 209.146,29.045 
		199.609,31.933 190.073,34.984 180.863,38.2 171.654,41.578 162.391,45.175 157.649,47.027 152.854,48.989 143.045,52.968 
		133.128,57.164 128.06,59.344 122.991,61.632 117.869,63.976 112.638,66.427 107.298,68.989 101.794,71.604 90.623,77.108 
		85.118,79.942 79.724,82.83 74.492,85.663 69.588,88.552 64.956,91.44 60.487,94.328 56.183,97.217 52.096,100.159 48.117,103.047 
		44.303,105.99 40.543,108.933 36.946,111.875 33.459,114.817 30.025,117.869 26.757,120.866 23.65,123.918 20.653,126.861 
		17.874,129.749 15.258,132.474 12.915,135.035 10.789,137.378 8.883,139.558 7.193,141.573 5.667,143.481 4.36,145.334 
		3.215,147.132 2.289,148.984 1.472,150.838 0.817,152.745 0.381,154.707 0.055,156.614 0,158.467 0.055,160.319 0.327,162.063 
		0.872,163.698 1.58,165.224 2.397,166.641 3.215,167.949 4.142,169.093 4.741,169.692 5.341,170.237 6.104,170.728 6.921,171.272 
		7.847,171.763 8.938,172.254 10.136,172.744 11.553,173.235 13.078,173.67 14.822,174.16 16.838,174.597 19.072,175.032 
		21.525,175.469 24.194,175.85 26.975,176.286 29.917,176.668 36.074,177.376 42.45,178.084 48.771,178.738 51.823,179.065 
		54.766,179.392 57.6,179.664 60.27,179.992 62.776,180.264 65.229,180.536 69.861,180.972 74.329,181.408 78.634,181.79 
		82.885,182.171 87.244,182.607 91.767,183.098 94.11,183.425 96.562,183.751 99.069,184.133 101.739,184.514 107.188,185.386 
		118.469,187.24 124.026,188.165 129.368,189.146 131.874,189.638 134.326,190.127 136.669,190.617 138.849,191.054 140.92,191.489 
		142.882,191.871 144.734,192.308 146.533,192.688 149.856,193.451 152.963,194.214 155.797,194.977 158.521,195.794 
		161.082,196.775 163.535,197.811 165.933,198.955 168.167,200.208 170.292,201.462 172.199,202.825 173.943,204.241 
		175.414,205.712 176.667,207.238 177.594,208.819 178.248,210.454 178.63,212.196 178.793,213.941 178.684,215.793 
		178.356,217.646 177.812,219.608 177.05,221.57 176.122,223.642 175.033,225.657 173.889,227.619 172.581,229.526 171,231.542 
		170.128,232.577 169.147,233.668 168.112,234.867 166.968,236.065 165.714,237.372 164.353,238.79 162.881,240.261 
		161.246,241.841 159.447,243.585 157.485,245.438 155.36,247.399 153.127,249.525 150.729,251.65 148.222,253.884 143.1,258.517 
		137.76,263.148 132.474,267.727 129.857,269.96 127.352,272.086 124.899,274.102 122.556,276.063 118.032,279.66 113.563,283.147 
		109.26,286.417 105.009,289.522 100.812,292.521 96.726,295.462 92.693,298.296 88.77,301.075 84.901,303.801 81.087,306.416 
		77.381,308.923 73.784,311.32 70.296,313.555 66.973,315.734 65.338,316.77 63.757,317.806 62.286,318.786 60.814,319.713 
		58.09,321.457 55.474,323.092 53.076,324.617 50.896,325.979 48.826,327.232 46.919,328.377 45.229,329.413 43.704,330.393 
		42.396,331.21 41.306,331.918 40.38,332.409 39.671,332.9 39.071,333.227 38.636,333.554 38.309,333.882 38.091,334.208 
		37.818,335.025 37.764,335.462 37.873,335.897 38.2,336.17 38.418,336.225 38.745,336.225 39.181,336.17 39.671,336.061 
		40.271,335.897 40.979,335.624 41.797,335.298 42.614,334.861 43.54,334.426 44.521,333.935 45.557,333.336 46.701,332.736 
		47.899,332.082 49.153,331.429 50.516,330.666 51.933,329.849 53.403,329.031 54.984,328.104 56.673,327.178 58.417,326.197 
		60.27,325.161 62.231,324.072 64.302,322.928 66.481,321.729 68.825,320.53 71.223,319.222 73.676,317.914 74.983,317.206 
		76.236,316.552 78.906,315.135 81.631,313.664 87.189,310.612 92.912,307.397 98.688,304.019 104.519,300.531 107.461,298.678 
		110.458,296.771 116.616,292.738 122.991,288.543 129.368,284.236 135.743,279.822 142.01,275.464 148.059,271.159 
		150.947,269.088 153.726,267.017 159.229,262.984 162.009,260.968 164.733,258.953 170.073,255.028 175.196,251.105 
		177.648,249.198 179.992,247.291 182.28,245.383 184.406,243.476 186.422,241.569 188.329,239.716 190.072,237.809 
		191.653,235.956 193.07,234.104 194.323,232.25 195.522,230.453 196.503,228.654 197.43,226.856 198.247,225.112 198.955,223.313 
		199.501,221.57 199.991,219.826 200.427,218.137 200.699,216.394 200.972,214.704 201.189,211.324 201.135,207.947 
		200.972,206.257 200.754,204.622 200.427,202.933 199.991,201.243 199.446,199.609 198.792,197.975 198.084,196.34 197.32,194.705 
		195.577,191.544 193.561,188.492 191.381,185.55 189.038,182.771 187.784,181.463 186.422,180.154 185.005,178.901 
		183.479,177.647 180.265,175.305 176.886,173.071 173.344,170.892 169.802,168.82 166.205,166.804 162.717,164.843 
		159.229,162.935 155.633,161.191 148.276,157.922 144.625,156.396 141.138,154.869 137.868,153.344 134.816,151.764 
		133.346,150.946 131.929,150.238 129.149,148.767 126.479,147.35 124.026,145.933 121.738,144.461 119.723,142.881 
		118.795,142.063 117.924,141.192 117.16,140.32 116.507,139.339 115.309,137.378 114.272,135.416 113.4,133.399 113.129,132.364 
		112.855,131.274 112.747,130.13 112.692,128.931 112.747,127.732 112.91,126.424 113.183,125.008 113.618,123.59 114.164,122.01 
		114.872,120.376 115.744,118.577 116.779,116.725 117.978,114.708 119.286,112.638 120.703,110.458 122.283,108.224 
		123.918,105.936 125.662,103.592 129.368,98.905 133.346,94.219 137.487,89.696 139.558,87.517 141.683,85.445 143.809,83.429 
		146.042,81.358 150.62,77.38 155.47,73.511 160.482,69.697 165.605,65.991 170.837,62.34 176.122,58.798 181.354,55.365 
		186.694,51.986 192.253,48.662 197.92,45.447 203.642,42.341 209.255,39.344 214.649,36.564 217.32,35.202 219.826,33.895 
		222.333,32.695 224.677,31.497 229.254,29.263 233.776,27.246 238.082,25.394 240.152,24.521 242.169,23.704 244.076,22.941 
		245.929,22.232 247.618,21.524 249.199,20.87 250.67,20.271 251.978,19.727 253.177,19.182 254.157,18.69 254.975,18.255 
		255.683,17.818 256.228,17.492 256.609,17.165 256.937,16.893 257.1,16.675 257.154,16.456 257.1,16.293 256.937,16.185 
		256.664,16.13 256.282,16.075 255.847,16.075 254.647,16.185 253.885,16.293 253.067,16.456 	"/>
	<g>
		<defs>
			<polygon id="SVGID_5_" points="32.696,338.622 32.532,338.731 32.369,338.785 32.205,338.895 32.042,338.949 31.934,339.059 
				31.77,339.168 31.66,339.221 31.552,339.33 31.334,339.439 31.225,339.549 31.171,339.603 31.116,339.712 31.007,339.767 
				30.952,339.821 30.897,339.931 30.843,339.985 30.843,340.038 30.789,340.093 30.789,340.475 30.843,340.529 30.843,340.584 
				30.952,340.693 31.062,340.803 31.171,340.855 31.225,340.91 31.334,340.91 31.552,341.02 31.77,341.129 31.879,341.129 
				32.205,341.238 32.314,341.238 32.642,341.347 32.859,341.347 33.022,341.401 33.514,341.401 33.677,341.456 33.84,341.456 
				34.059,341.511 35.039,341.511 35.257,341.565 35.856,341.565 36.129,341.511 37.982,341.511 38.254,341.456 39.29,341.456 
				39.616,341.401 41.251,341.401 41.688,341.347 43.159,341.347 43.704,341.292 48.009,341.292 48.771,341.238 50.297,341.238 
				50.733,341.292 61.633,341.292 62.776,341.347 71.495,341.347 72.804,341.401 80.923,341.401 82.284,341.456 89.151,341.456 
				90.514,341.511 98.578,341.511 99.887,341.565 107.406,341.565 108.061,341.62 117.324,341.62 118.469,341.675 125.28,341.675 
				126.37,341.728 134.217,341.728 135.308,341.782 144.189,341.782 145.279,341.837 159.884,341.837 160.537,341.892 
				175.359,341.892 176.504,341.837 201.897,341.837 203.043,341.782 213.614,341.782 214.269,341.837 229.526,341.837 
				230.671,341.892 240.098,341.892 241.297,341.946 250.888,341.946 252.087,342.001 269.524,342.001 270.232,342.056 
				272.794,342.056 274.102,342.001 294.646,342.001 296.008,341.946 310.067,341.946 311.483,341.892 355.896,341.892 
				357.041,341.946 370.228,341.946 371.263,342.001 380.581,342.001 381.616,342.056 419.054,342.056 420.961,342.001 
				471.969,342.001 473.604,341.946 475.238,341.946 476.927,342.001 513.492,342.001 514.961,342.056 526.08,342.056 
				527.387,342.001 539.811,342.001 540.848,341.946 559.864,341.946 560.464,341.892 562.099,341.892 562.643,341.837 
				563.681,341.837 564.171,341.782 564.606,341.782 565.097,341.728 565.531,341.728 566.403,341.62 566.841,341.565 
				567.223,341.565 567.985,341.456 568.748,341.347 569.129,341.238 569.454,341.184 569.674,341.184 570.002,341.074 
				570.273,341.02 570.602,340.91 570.874,340.803 571.146,340.748 571.364,340.639 571.637,340.529 571.853,340.421 
				572.018,340.312 572.233,340.202 572.562,339.985 572.671,339.821 572.834,339.712 572.943,339.604 573.053,339.439 
				573.105,339.33 573.215,339.168 573.271,339.059 573.324,338.895 573.381,338.786 573.381,338.622 573.434,338.513 
				573.434,338.077 573.381,337.914 573.381,337.75 573.324,337.641 573.215,337.313 573.162,337.204 573.105,337.042 
				572.999,336.878 572.89,336.77 572.834,336.605 572.725,336.441 572.618,336.334 572.509,336.17 572.343,336.061 
				572.233,335.897 572.127,335.788 571.962,335.679 571.853,335.517 571.527,335.298 571.471,335.243 571.309,335.08 
				571.09,334.971 570.927,334.861 570.492,334.645 570.055,334.426 569.836,334.317 569.563,334.208 569.292,334.153 
				568.748,333.937 568.42,333.827 568.147,333.718 567.819,333.663 567.166,333.445 566.841,333.336 566.513,333.281 
				566.132,333.174 565.807,333.064 565.041,332.846 564.659,332.791 563.896,332.573 563.134,332.356 562.699,332.246 
				562.317,332.137 561.88,332.082 561.499,331.973 561.064,331.865 560.627,331.701 560.192,331.592 559.811,331.483 
				558.938,331.265 558.504,331.155 558.066,330.993 557.632,330.884 557.194,330.721 556.76,330.611 556.322,330.447 
				555.888,330.34 555.45,330.176 555.234,330.121 554.362,329.794 553.924,329.63 553.489,329.522 552.617,329.194 552.18,329.086 
				551.311,328.758 550.873,328.65 550.001,328.323 549.566,328.159 549.076,328.05 548.203,327.724 547.713,327.56 
				547.278,327.396 546.787,327.232 546.35,327.07 545.368,326.741 544.39,326.415 543.899,326.252 543.408,326.033 
				542.864,325.871 542.373,325.707 541.282,325.271 540.738,325.108 540.191,324.89 539.595,324.672 539.048,324.453 
				537.85,324.018 537.25,323.745 536.649,323.528 535.996,323.255 535.396,323.037 534.09,322.492 533.38,322.22 532.727,321.894 
				531.311,321.348 530.929,321.184 529.403,320.53 528.641,320.203 527.821,319.877 527.006,319.495 526.187,319.167 
				525.371,318.786 523.627,318.023 521.882,317.261 520.031,316.497 519.104,316.062 518.178,315.68 517.196,315.244 
				516.271,314.808 515.289,314.427 513.326,313.555 511.366,312.684 510.385,312.193 509.35,311.757 508.368,311.32 
				507.387,310.83 506.352,310.394 505.37,309.958 504.336,309.469 503.354,309.032 502.376,308.542 501.338,308.105 
				500.359,307.615 499.378,307.179 498.343,306.689 497.361,306.198 496.38,305.763 495.454,305.271 494.473,304.836 
				493.491,304.347 492.566,303.855 491.641,303.42 490.659,302.929 489.787,302.493 488.858,302.002 487.934,301.567 
				487.499,301.349 486.57,300.857 485.698,300.423 484.829,299.933 483.957,299.496 483.085,299.006 482.156,298.569 
				480.415,297.59 479.543,297.153 477.799,296.172 476.055,295.191 475.182,294.756 474.31,294.265 473.494,293.774 
				471.75,292.794 470.878,292.304 470.059,291.812 468.317,290.833 467.498,290.342 466.626,289.851 464.991,288.869 
				464.119,288.38 462.484,287.398 460.85,286.419 460.033,285.873 458.398,284.892 457.582,284.402 456.816,283.911 
				455.182,282.93 453.656,281.95 452.84,281.459 451.314,280.479 449.789,279.497 449.026,279.007 448.645,278.789 
				447.119,277.808 446.41,277.317 445.647,276.828 444.938,276.392 444.175,275.901 442.759,274.919 442.049,274.484 
				441.343,273.994 440.633,273.558 439.217,272.576 438.507,272.141 437.801,271.651 437.145,271.215 436.438,270.725 
				435.784,270.288 435.075,269.798 434.422,269.308 433.712,268.872 432.405,267.891 431.752,267.454 430.442,266.475 
				429.789,266.038 428.481,265.057 427.828,264.567 427.229,264.131 425.922,263.149 425.321,262.659 424.668,262.17 
				423.468,261.188 422.814,260.643 421.614,259.663 421.017,259.172 420.36,258.626 419.764,258.137 419.163,257.592 
				418.563,257.101 417.963,256.557 417.69,256.283 416.493,255.194 415.293,254.104 414.749,253.504 413.549,252.415 
				413.005,251.814 412.404,251.271 411.86,250.671 411.261,250.127 410.173,248.928 409.572,248.327 409.028,247.782 
				407.938,246.583 406.847,245.385 405.759,244.186 404.668,242.986 404.177,242.388 403.633,241.788 403.143,241.189 
				402.598,240.589 401.616,239.391 401.072,238.792 400.091,237.593 399.109,236.394 398.619,235.794 398.185,235.195 
				397.693,234.649 397.256,234.051 396.765,233.451 396.33,232.905 395.84,232.307 395.405,231.761 394.968,231.162 
				394.096,230.071 393.714,229.527 393.495,229.256 392.626,228.165 392.244,227.62 391.863,227.13 391.479,226.584 
				390.716,225.604 389.953,224.623 389.628,224.132 389.247,223.643 388.919,223.152 388.537,222.661 388.212,222.225 
				387.884,221.734 387.556,221.298 386.902,220.318 386.577,219.882 386.249,219.392 385.977,218.955 385.648,218.466 
				385.323,218.03 385.052,217.539 384.724,217.048 384.451,216.612 384.18,216.121 383.852,215.632 383.308,214.65 
				382.761,213.671 382.217,212.689 381.944,212.144 381.672,211.654 381.125,210.563 380.581,209.474 380.31,208.929 
				380.037,208.33 379.818,207.784 379.274,206.585 379.003,205.986 378.894,205.66 378.347,204.352 378.074,203.752 
				377.803,203.044 377.584,202.391 377.04,201.082 376.768,200.374 376.549,199.666 376.005,198.248 375.786,197.54 
				375.242,196.122 375.023,195.359 374.751,194.651 374.532,193.889 374.261,193.126 374.042,192.418 373.826,191.655 
				373.551,190.893 373.116,189.365 372.679,187.84 372.463,187.077 372.244,186.26 372.025,185.497 371.863,184.734 
				371.644,183.972 371.481,183.209 371.263,182.446 371.1,181.629 370.881,180.865 370.556,179.339 370.228,177.813 
				370.118,177.051 369.793,175.524 369.684,174.762 369.574,174.054 369.412,173.291 369.303,172.527 369.193,171.819 
				369.193,171.438 369.084,170.675 368.975,169.967 368.921,169.204 368.812,168.495 368.702,166.97 368.646,166.261 
				368.54,164.735 368.483,163.973 368.431,163.264 368.431,162.501 368.374,161.738 368.374,160.213 368.321,159.504 
				368.321,156.507 368.374,155.744 368.374,154.219 368.431,153.51 368.431,152.747 368.483,152.039 368.483,151.275 
				368.54,150.567 368.593,149.805 368.702,148.388 368.702,147.679 368.812,146.916 368.921,145.499 368.975,144.791 
				369.03,144.137 369.084,143.429 369.193,142.72 369.246,142.066 369.355,141.357 369.412,140.704 369.519,140.051 
				369.574,139.396 369.793,138.088 369.847,137.762 369.956,137.107 370.065,136.508 370.118,135.854 370.228,135.254 
				370.337,134.601 370.556,133.402 370.719,132.748 370.938,131.549 371.044,130.949 371.209,130.351 371.318,129.751 
				371.481,129.205 371.591,128.605 371.754,128.007 371.916,127.462 372.082,126.862 372.191,126.317 372.354,125.718 
				372.679,124.628 372.845,124.083 373.061,123.483 373.389,122.394 373.551,121.849 373.77,121.359 373.933,120.813 
				374.151,120.269 374.313,119.724 374.532,119.233 374.751,118.688 374.914,118.197 375.133,117.653 375.567,116.672 
				376.005,115.691 376.224,115.2 376.495,114.711 376.931,113.729 377.202,113.239 377.421,112.749 377.693,112.312 
				377.803,112.04 378.131,111.44 378.512,110.842 378.837,110.242 379.219,109.643 379.547,109.043 380.31,107.844 380.69,107.245 
				381.019,106.646 381.4,106.101 381.835,105.501 382.217,104.901 382.598,104.356 382.979,103.757 383.417,103.212 
				383.798,102.667 384.18,102.068 385.052,100.978 385.433,100.434 386.302,99.343 387.174,98.254 387.612,97.709 388.047,97.218 
				388.537,96.673 388.975,96.128 389.409,95.638 389.9,95.093 390.335,94.603 390.825,94.058 391.807,93.077 392.244,92.531 
				393.224,91.551 393.714,91.061 394.261,90.569 395.239,89.589 395.73,89.099 396.277,88.663 396.765,88.172 397.312,87.682 
				397.856,87.246 398.128,86.973 398.619,86.483 399.163,86.047 399.71,85.557 400.798,84.685 401.397,84.249 402.488,83.377 
				403.089,82.995 403.633,82.56 404.233,82.123 404.83,81.741 405.377,81.306 406.574,80.543 407.175,80.106 408.372,79.344 
				409.028,78.963 410.226,78.2 410.879,77.818 411.479,77.438 412.133,77.056 412.732,76.674 413.387,76.293 414.04,75.966 
				415.35,75.203 416.003,74.821 416.656,74.495 417.963,73.731 418.619,73.35 419.326,73.023 420.636,72.261 421.342,71.933 
				421.995,71.552 422.705,71.17 423.358,70.789 424.068,70.462 425.484,69.698 426.193,69.317 426.847,68.936 427.281,68.772 
				427.938,68.391 429.354,67.628 430.061,67.247 430.823,66.865 432.242,66.102 432.949,65.721 433.658,65.394 434.365,65.013 
				435.131,64.631 435.838,64.25 436.601,63.868 437.31,63.541 438.072,63.159 438.779,62.778 439.545,62.396 440.252,62.07 
				441.777,61.307 442.54,60.979 444.065,60.217 444.828,59.891 445.647,59.509 446.41,59.127 447.173,58.801 448.808,58.037 
				449.57,57.71 450.387,57.329 451.205,57.002 452.021,56.621 452.84,56.294 453.712,55.912 454.528,55.53 455.4,55.204 
				456.22,54.822 457.964,54.168 458.833,53.787 459.705,53.46 460.577,53.079 461.506,52.751 462.431,52.37 463.303,52.043 
				463.847,51.88 464.719,51.498 465.701,51.171 466.626,50.79 468.479,50.136 469.461,49.754 470.439,49.428 471.368,49.046 
				473.328,48.393 474.31,48.011 475.291,47.684 476.326,47.302 478.289,46.648 479.324,46.268 481.394,45.613 482.375,45.231 
				483.41,44.904 484.501,44.577 485.535,44.196 486.57,43.869 487.661,43.542 488.696,43.216 490.875,42.562 491.913,42.18 
				494.092,41.525 495.235,41.199 497.415,40.545 498.559,40.218 499.649,39.945 501.938,39.291 504.227,38.638 505.37,38.365 
				507.662,37.711 508.859,37.439 510.003,37.111 511.203,36.84 512.401,36.513 513.055,36.403 514.255,36.131 515.452,35.805 
				517.85,35.259 519.05,34.986 520.304,34.659 521.501,34.388 524.008,33.843 525.208,33.57 527.712,33.025 528.966,32.753 
				530.275,32.479 532.782,31.935 534.09,31.662 535.396,31.445 536.649,31.172 539.267,30.628 540.573,30.409 541.883,30.137 
				543.245,29.919 545.859,29.374 547.222,29.156 548.585,28.883 549.892,28.665 551.255,28.447 552.617,28.175 553.98,27.957 
				555.396,27.685 558.122,27.248 559.539,27.031 560.901,26.758 563.733,26.322 566.569,25.886 569.401,25.45 570.817,25.232 
				572.29,25.015 573.706,24.797 574.524,24.688 575.832,24.523 577.139,24.415 579.755,24.088 581.062,23.979 582.315,23.815 
				583.625,23.706 584.932,23.543 586.186,23.435 587.492,23.271 588.745,23.162 589.999,22.998 591.253,22.889 592.562,22.726 
				593.815,22.617 595.066,22.453 596.32,22.345 597.521,22.235 598.773,22.071 600.027,21.963 601.225,21.854 602.479,21.69 
				603.731,21.581 606.13,21.363 607.383,21.254 608.583,21.091 610.98,20.873 613.379,20.655 614.576,20.546 615.72,20.438 
				618.118,20.22 619.262,20.11 620.462,20.001 622.751,19.783 623.948,19.674 626.239,19.456 627.384,19.347 628.527,19.292 
				630.815,19.074 631.416,19.021 632.504,18.911 634.792,18.693 635.883,18.639 638.172,18.421 639.263,18.366 640.406,18.258 
				641.497,18.203 642.586,18.094 643.729,18.04 644.82,17.931 645.911,17.876 647.056,17.767 648.144,17.712 649.234,17.604 
				651.413,17.494 652.448,17.386 654.63,17.276 655.665,17.168 656.756,17.113 658.825,17.004 659.86,16.949 660.895,16.841 
				662.967,16.731 664.002,16.677 664.983,16.623 666.019,16.514 667.979,16.404 669.941,16.295 671.904,16.187 673.755,16.077 
				674.684,15.969 676.534,15.86 677.463,15.806 678.335,15.751 679.261,15.696 679.751,15.696 680.623,15.587 681.495,15.532 
				682.367,15.532 684.108,15.424 684.981,15.369 685.909,15.314 686.781,15.26 687.65,15.26 689.395,15.151 690.214,15.151 
				691.086,15.097 691.958,15.097 692.774,15.043 693.646,14.988 694.466,14.988 695.281,14.934 696.098,14.934 696.916,14.879 
				697.732,14.879 698.495,14.824 699.313,14.824 700.077,14.77 700.786,14.715 701.549,14.715 702.256,14.66 703.019,14.66 
				703.728,14.606 705.034,14.497 705.744,14.497 706.345,14.442 706.998,14.389 708.195,14.279 709.286,14.17 709.83,14.115 
				710.812,14.006 711.303,13.952 711.737,13.897 712.175,13.789 712.556,13.734 712.938,13.625 713.156,13.625 713.81,13.407 
				714.081,13.298 714.409,13.243 714.682,13.135 714.897,12.972 715.172,12.862 715.388,12.754 715.554,12.645 715.77,12.535 
				715.936,12.372 716.098,12.263 716.207,12.1 716.316,11.991 716.426,11.827 716.532,11.718 716.642,11.392 716.698,11.282 
				716.751,11.118 716.751,10.846 716.698,10.683 716.698,10.52 716.642,10.355 716.589,10.246 716.479,10.083 716.426,9.92 
				716.316,9.812 716.207,9.647 716.045,9.538 715.936,9.375 715.77,9.266 715.554,9.103 715.388,8.993 715.172,8.829 
				714.734,8.611 714.516,8.503 713.972,8.285 713.428,8.066 713.156,7.958 712.828,7.903 712.5,7.795 712.337,7.795 711.956,7.686 
				711.631,7.631 711.249,7.577 710.865,7.468 710.431,7.413 710.049,7.358 709.614,7.304 709.123,7.249 708.686,7.194 
				708.195,7.194 707.217,7.086 706.726,7.031 706.179,7.031 705.091,6.923 704.49,6.923 703.946,6.868 703.347,6.868 
				702.693,6.813 701.439,6.813 700.786,6.76 699.423,6.76 698.77,6.705 696.588,6.705 695.882,6.65 692.774,6.65 691.958,6.595 
				688.632,6.595 687.76,6.541 685.091,6.541 684.165,6.486 681.82,6.486 680.839,6.432 678.879,6.432 677.844,6.377 674.628,6.377 
				673.539,6.323 667.815,6.323 666.618,6.269 654.083,6.269 652.776,6.214 639.481,6.214 638.118,6.16 630.053,6.16 628.743,6.105 
				624.058,6.105 622.697,6.051 620.024,6.051 618.665,5.996 615.938,5.996 614.522,5.941 611.744,5.941 610.324,5.887 
				607.492,5.887 606.076,5.832 604.604,5.832 603.188,5.777 600.299,5.777 598.827,5.724 597.411,5.724 595.938,5.669 
				594.522,5.669 593.053,5.614 590.164,5.614 588.692,5.56 587.276,5.56 585.857,5.506 584.388,5.506 582.972,5.451 580.137,5.451 
				578.72,5.396 577.304,5.396 575.941,5.342 574.524,5.342 573.162,5.288 570.437,5.288 569.129,5.233 567.819,5.233 566.46,5.179 
				563.896,5.179 562.643,5.124 559.482,5.124 558.229,5.069 555.831,5.069 554.634,5.015 552.289,5.015 551.092,4.96 548.804,4.96 
				547.659,4.906 545.371,4.906 544.225,4.852 540.901,4.852 539.811,4.797 537.631,4.797 536.543,4.742 533.38,4.742 
				532.292,4.688 529.185,4.688 528.203,4.634 525.152,4.634 524.171,4.579 522.154,4.579 521.176,4.524 518.287,4.524 
				517.358,4.471 514.526,4.471 513.545,4.416 510.331,4.416 509.403,4.361 508.478,4.361 507.605,4.307 506.733,4.307 
				505.861,4.252 504.989,4.252 504.173,4.197 503.301,4.143 502.482,4.143 500.85,4.034 500.031,3.979 499.269,3.979 
				498.452,3.925 497.687,3.87 496.871,3.816 495.345,3.707 494.582,3.707 493.057,3.598 492.348,3.543 491.585,3.543 
				490.821,3.488 490.112,3.435 489.35,3.435 488.643,3.38 487.934,3.38 487.171,3.325 485.754,3.325 485.045,3.271 482.866,3.271 
				482.156,3.325 480.74,3.325 480.033,3.38 479.268,3.38 477.852,3.488 476.436,3.598 475.673,3.652 474.963,3.762 474.582,3.816 
				473.819,3.87 473.112,3.979 472.35,4.034 470.931,4.252 469.515,4.47 468.752,4.579 467.336,4.797 465.92,5.015 465.21,5.179 
				464.5,5.287 463.847,5.396 462.431,5.723 461.722,5.832 461.015,5.996 460.361,6.159 458.942,6.485 458.235,6.649 457.582,6.813 
				456.873,6.977 456.22,7.194 455.51,7.358 454.8,7.576 454.146,7.794 453.44,8.012 452.784,8.23 452.077,8.448 451.424,8.665 
				450.715,8.884 450.062,9.102 449.352,9.374 448.698,9.647 447.988,9.864 447.335,10.137 446.629,10.41 445.973,10.682 
				445.266,11.009 444.612,11.281 443.902,11.608 443.249,11.881 442.54,12.208 442.215,12.426 440.796,13.079 440.143,13.407 
				439.436,13.788 438.779,14.17 437.363,14.933 436.71,15.313 436,15.75 435.294,16.131 434.641,16.567 433.221,17.439 
				432.567,17.875 431.861,18.365 430.442,19.237 429.789,19.728 429.082,20.219 428.426,20.709 427.719,21.145 427.01,21.636 
				426.356,22.125 425.646,22.67 424.34,23.651 423.63,24.142 422.977,24.687 422.323,25.178 421.614,25.667 420.961,26.213 
				420.308,26.703 419.654,27.248 419.001,27.738 418.344,28.283 417.747,28.773 417.094,29.318 416.438,29.81 415.84,30.354 
				415.184,30.845 414.587,31.39 413.986,31.88 413.333,32.425 412.133,33.406 411.532,33.896 411.261,34.224 410.063,35.204 
				408.973,36.185 407.884,37.166 407.337,37.602 406.249,38.583 405.759,39.072 405.212,39.563 404.721,40.054 404.233,40.489 
				403.252,41.471 402.27,42.452 401.288,43.433 400.307,44.413 399.819,44.903 399.382,45.395 398.4,46.375 397.909,46.92 
				397.475,47.41 396.493,48.5 396.002,48.991 395.567,49.535 395.077,50.081 394.586,50.68 393.604,51.77 392.626,52.969 
				392.079,53.514 391.588,54.113 391.098,54.767 390.554,55.366 390.062,56.021 389.519,56.62 388.428,57.928 387.884,58.636 
				387.612,59.018 387.012,59.672 386.468,60.38 385.268,61.797 384.724,62.56 384.123,63.269 383.523,64.031 382.87,64.794 
				381.672,66.319 381.019,67.137 380.419,67.899 379.766,68.717 379.165,69.534 377.855,71.169 377.259,71.987 376.604,72.805 
				375.948,73.677 375.295,74.494 374.642,75.365 374.042,76.183 372.735,77.927 372.082,78.799 371.481,79.671 370.175,81.414 
				369.574,82.286 368.921,83.158 368.321,84.085 367.668,84.957 366.468,86.7 365.867,87.627 364.67,89.37 364.069,90.297 
				363.525,91.168 362.926,92.04 362.382,92.968 361.291,94.711 360.746,95.582 360.202,96.509 359.711,97.381 359.438,97.871 
				358.894,98.743 358.402,99.615 357.912,100.433 356.932,102.177 355.95,103.92 354.97,105.664 354.533,106.481 354.044,107.354 
				353.607,108.225 353.116,109.097 352.682,109.914 352.19,110.787 351.318,112.53 350.447,114.273 349.575,116.018 
				349.139,116.89 348.758,117.816 348.321,118.688 347.939,119.56 347.504,120.486 347.122,121.358 346.359,123.211 
				345.597,125.063 344.834,126.916 344.453,127.897 344.125,128.824 343.799,129.805 343.417,130.785 342.763,132.747 
				342.437,133.728 342.109,134.764 341.782,135.744 341.51,136.779 341.183,137.815 340.91,138.85 340.584,139.94 340.475,140.54 
				340.147,141.575 339.875,142.665 339.603,143.81 339.385,144.899 339.112,146.044 338.84,147.242 338.622,148.387 
				338.404,149.586 338.131,150.729 337.913,151.929 337.695,153.183 337.477,154.381 337.313,155.635 337.096,156.833 
				336.878,158.086 336.714,159.34 336.496,160.594 336.333,161.9 336.006,164.408 335.843,165.716 335.679,166.969 
				335.516,168.277 335.353,169.53 335.188,170.838 335.079,172.146 334.916,173.399 334.808,174.707 334.698,175.961 
				334.534,177.268 334.426,178.521 334.316,179.829 334.099,182.337 333.99,183.644 333.881,184.896 333.826,186.15 
				333.717,187.404 333.608,188.603 333.554,189.856 333.445,191.055 333.336,193.453 333.228,194.651 333.173,195.851 
				333.118,196.995 333.118,197.648 333.009,198.794 333.009,199.938 332.899,202.227 332.899,203.37 332.846,204.515 
				332.846,210.291 332.899,211.436 332.899,213.724 333.009,216.014 333.009,217.157 333.063,218.302 333.118,219.392 
				333.173,220.535 333.228,221.626 333.281,222.771 333.391,224.949 333.445,226.04 333.554,227.13 333.663,229.309 
				333.717,230.345 333.826,231.435 333.936,233.506 334.045,234.54 334.099,235.576 334.208,236.611 334.316,238.573 
				334.426,239.555 334.534,241.516 334.644,242.442 334.698,243.423 334.753,244.35 334.862,245.276 334.916,246.147 
				334.971,247.074 335.025,247.564 335.079,248.437 335.134,249.255 335.243,250.997 335.353,251.814 335.407,252.687 
				335.516,253.504 335.57,254.322 335.679,255.14 335.788,255.902 335.842,256.72 335.951,257.482 336.061,258.3 336.17,259.062 
				336.225,259.825 336.333,260.588 336.442,261.298 336.551,262.061 336.659,262.769 336.714,263.477 336.823,264.239 
				336.933,264.895 337.15,266.311 337.259,266.964 337.313,267.618 337.423,268.326 337.531,268.979 337.586,269.58 
				337.695,270.233 337.805,270.834 337.858,271.487 337.968,272.087 338.022,272.686 338.131,273.286 338.186,273.83 
				338.24,274.43 338.295,274.976 338.404,275.52 338.513,276.609 338.567,277.154 338.567,277.646 338.621,278.19 338.676,278.68 
				338.676,279.171 338.73,279.442 338.73,280.315 338.785,280.806 338.785,281.188 338.839,281.623 338.839,282.005 
				338.894,282.386 338.894,283.094 338.948,283.421 338.948,284.075 339.003,284.402 339.003,286.964 338.948,287.182 
				338.948,287.617 338.839,288.054 338.839,288.271 338.73,288.707 338.676,288.871 338.567,289.307 338.458,289.524 
				338.404,289.743 338.295,289.905 338.24,290.124 338.022,290.561 337.913,290.833 337.695,291.269 337.531,291.541 
				337.422,291.76 337.259,292.031 337.205,292.194 337.041,292.413 336.714,292.958 336.388,293.502 336.224,293.775 
				336.115,294.048 335.951,294.319 335.788,294.538 335.461,295.082 335.298,295.355 335.079,295.628 334.753,296.174 
				334.534,296.445 334.371,296.718 334.153,296.937 333.936,297.208 333.771,297.48 333.554,297.754 333.281,298.025 
				333.063,298.298 332.845,298.517 332.3,299.061 332.027,299.334 331.756,299.551 331.482,299.823 331.156,300.097 
				330.884,300.313 330.557,300.586 330.176,300.859 329.848,301.077 329.467,301.351 329.085,301.567 328.704,301.84 
				328.322,302.059 327.887,302.275 327.45,302.549 327.014,302.767 326.524,302.983 326.033,303.257 325.053,303.693 
				324.508,303.91 324.235,304.074 323.636,304.292 323.091,304.511 322.491,304.728 321.946,304.892 320.748,305.328 
				320.148,305.545 319.549,305.709 318.949,305.927 318.296,306.144 317.642,306.309 316.987,306.525 316.334,306.689 
				315.68,306.908 314.972,307.071 314.263,307.29 312.846,307.616 312.138,307.834 310.611,308.16 309.849,308.379 
				309.086,308.542 308.269,308.706 307.451,308.923 306.634,309.087 305.762,309.251 304.891,309.469 303.146,309.795 
				302.22,309.959 301.294,310.177 300.367,310.341 299.386,310.503 298.405,310.722 297.425,310.885 296.389,311.104 
				294.318,311.43 293.229,311.649 292.139,311.812 290.994,312.03 289.904,312.193 288.706,312.412 287.561,312.629 
				286.362,312.793 285.709,312.956 284.455,313.12 281.84,313.556 279.115,313.992 276.281,314.428 274.81,314.646 
				271.758,315.081 270.232,315.299 267.072,315.734 265.438,315.953 263.856,316.226 262.167,316.442 260.532,316.662 
				257.154,317.098 255.465,317.37 251.978,317.806 250.287,318.023 248.544,318.242 246.746,318.514 243.258,318.95 
				239.771,319.386 237.973,319.604 234.484,320.039 230.997,320.476 229.253,320.694 227.564,320.911 225.82,321.13 
				222.441,321.566 220.753,321.783 219.117,322.001 217.482,322.165 215.848,322.383 214.268,322.602 212.688,322.766 
				211.107,322.982 210.29,323.092 208.709,323.255 207.184,323.419 205.712,323.636 202.66,323.963 201.188,324.182 
				199.663,324.344 196.721,324.672 193.778,324.999 192.307,325.161 190.835,325.38 187.893,325.707 186.476,325.871 
				185.005,326.033 183.533,326.143 180.7,326.47 179.229,326.634 176.395,326.96 174.924,327.125 173.507,327.232 170.673,327.561 
				169.256,327.724 167.839,327.833 166.368,327.995 163.534,328.323 162.118,328.432 159.284,328.758 157.867,328.867 
				156.396,329.031 154.979,329.141 152.145,329.468 150.674,329.577 149.257,329.739 147.841,329.849 146.369,330.012 
				144.952,330.176 143.481,330.285 142.718,330.393 141.247,330.502 139.775,330.666 138.25,330.774 136.724,330.938 
				135.198,331.048 132.146,331.374 130.565,331.483 128.985,331.646 127.405,331.756 125.825,331.92 124.245,332.027 
				122.664,332.191 121.084,332.302 119.449,332.464 117.868,332.573 116.288,332.737 114.653,332.846 113.073,333.01 
				111.493,333.119 109.913,333.281 108.332,333.391 106.752,333.555 105.226,333.663 103.646,333.772 102.12,333.937 
				99.068,334.153 96.126,334.372 94.654,334.535 93.184,334.645 90.35,334.861 87.625,335.08 85.009,335.298 83.756,335.353 
				81.249,335.571 80.105,335.679 78.906,335.733 77.816,335.843 76.727,335.897 75.691,336.007 75.146,336.061 74.11,336.115 
				72.258,336.225 71.332,336.334 70.46,336.389 68.824,336.496 68.007,336.551 67.244,336.605 66.536,336.66 65.827,336.66 
				65.119,336.715 63.812,336.824 63.157,336.824 62.558,336.878 61.958,336.878 61.413,336.933 60.869,336.933 60.324,336.987 
				59.778,336.987 59.289,337.042 58.798,337.042 58.308,337.097 57.381,337.097 56.891,337.151 56.019,337.151 55.583,337.206 
				54.329,337.206 53.948,337.261 53.13,337.261 52.695,337.313 51.878,337.313 51.441,337.368 50.624,337.368 50.188,337.423 
				49.752,337.423 49.315,337.478 48.881,337.478 48.662,337.533 48.227,337.588 47.3,337.588 46.864,337.643 46.428,337.643 
				45.992,337.695 45.61,337.695 45.175,337.75 44.738,337.75 44.357,337.805 43.921,337.805 43.54,337.859 43.158,337.859 
				42.776,337.914 42.341,337.914 42.014,337.969 41.633,337.969 41.251,338.023 40.488,338.023 40.161,338.078 39.779,338.078 
				39.453,338.132 39.126,338.132 38.799,338.187 38.145,338.187 37.818,338.241 37.49,338.241 37.164,338.296 36.837,338.296 
				36.564,338.351 35.965,338.351 35.692,338.405 35.093,338.405 34.821,338.46 34.548,338.46 34.33,338.515 33.785,338.515 
				33.567,338.567 33.076,338.567 32.805,338.622 32.695,338.622 			"/>
		</defs>
		<linearGradient id="SVGID_6_" gradientUnits="userSpaceOnUse" x1="373.7695" y1="342.0557" x2="373.7695" y2="3.271">
			<stop  offset="0" style="stop-color:#FEE2D5"/>
			<stop  offset="1" style="stop-color:#ED261A"/>
		</linearGradient>
		<use xlink:href="#SVGID_5_"  overflow="visible" fill-rule="evenodd" clip-rule="evenodd" fill="url(#SVGID_6_)"/>
		<clipPath id="SVGID_7_">
			<use xlink:href="#SVGID_5_"  overflow="visible"/>
		</clipPath>
	</g>
	<path fill="#ED1C24" d="M554.353,89.891h9.509l-0.143,0.656c-0.301,1.224-0.443,2.395-0.443,3.494c0,3.193,1.525,4.79,4.577,4.79
		c1.915,0,3.565-0.55,4.931-1.686c1.349-1.135,2.235-2.643,2.626-4.559c0.142-0.763,0.23-1.473,0.23-2.111
		c0-1.384-0.408-2.501-1.188-3.317c-0.78-0.815-2.022-1.561-3.689-2.271l-4.719-2.04c-2.448-1.082-4.258-2.395-5.428-3.955
		c-1.171-1.562-1.757-3.513-1.757-5.854c0-1.101,0.143-2.396,0.426-3.921c0.639-3.016,1.81-5.569,3.495-7.628
		c1.685-2.058,3.76-3.601,6.243-4.594c2.466-0.993,5.216-1.508,8.214-1.508c8.23,0,12.346,3.175,12.346,9.508
		c0,1.349-0.195,2.909-0.585,4.647h-9.366c0.23-1.117,0.354-2.11,0.354-2.962c0-2.856-1.366-4.293-4.062-4.293
		c-3.689,0-5.978,2.022-6.829,6.031c-0.106,0.674-0.142,1.135-0.142,1.384c0,1.419,0.461,2.554,1.384,3.405
		c0.922,0.852,2.288,1.686,4.062,2.466c3.069,1.312,5.322,2.359,6.759,3.104c1.437,0.763,2.625,1.791,3.583,3.104
		c0.958,1.312,1.438,3.051,1.438,5.197c0,1.348-0.178,2.838-0.515,4.435c-0.71,3.37-1.934,6.102-3.708,8.213
		c-1.773,2.129-3.991,3.672-6.634,4.647c-2.661,0.976-5.623,1.455-8.923,1.455c-5.162,0-8.763-1.136-10.82-3.406
		c-1.366-1.561-2.04-3.672-2.04-6.333c0-1.365,0.213-3.14,0.656-5.304C554.193,90.529,554.246,90.263,554.353,89.891L554.353,89.891
		z M592.474,68.249h4.736l2.164-10.395h9.384l-2.182,10.395h5.517l-1.384,6.616h-5.517l-4.204,20.347
		c-0.106,0.656-0.16,1.064-0.16,1.242c0,1.312,0.799,1.951,2.413,1.951c1.1,0,1.969-0.018,2.607-0.089l-1.384,6.475
		c-1.827,0.354-3.689,0.515-5.588,0.515c-4.967,0-7.609-1.225-7.929-3.69c0-2.341,0.195-4.363,0.585-6.03l4.293-20.72h-4.719
		L592.474,68.249z"/>
	<path fill="#ED1C24" d="M611.224,86.484c0.585-2.838,1.312-5.375,2.182-7.628c0.869-2.234,2.005-4.222,3.406-5.942
		s3.157-3.068,5.286-4.062c2.11-0.976,4.611-1.473,7.503-1.473c4.239,0,7.22,0.904,8.958,2.696c1.721,1.81,2.59,4.382,2.59,7.752
		c0,2.306-0.372,5.162-1.082,8.586c-0.852,3.955-1.934,7.325-3.264,10.093c-1.349,2.768-3.246,5.002-5.747,6.688
		c-2.483,1.703-5.642,2.537-9.455,2.537c-2.572,0-4.701-0.319-6.403-0.976c-1.686-0.657-2.945-1.757-3.797-3.282
		s-1.259-3.601-1.259-6.208C610.142,92.924,610.496,89.997,611.224,86.484L611.224,86.484z M620.66,86.414
		c-0.78,3.831-1.152,6.562-1.152,8.213c0,3.157,1.152,4.718,3.477,4.718c1.862,0,3.37-0.993,4.506-3.016
		c1.135-2.004,2.164-5.286,3.121-9.845c0.781-3.707,1.171-6.403,1.171-8.071c0-3.086-1.171-4.647-3.494-4.647
		c-1.419,0-2.59,0.515-3.53,1.544c-0.939,1.028-1.703,2.43-2.306,4.186C621.849,81.252,621.264,83.558,620.66,86.414L620.66,86.414z
		 M649.125,68.249h9.082l-0.301,1.473c-0.231,1.259-0.604,2.749-1.082,4.506c2.731-4.417,6.208-6.635,10.466-6.635
		c0.674,0,1.082,0.035,1.241,0.071l-1.898,8.887c-0.763-0.142-1.561-0.23-2.395-0.23c-2.944,0-5.304,0.976-7.06,2.909
		c-0.905,1.028-1.579,2.555-2.022,4.576l-4.363,20.985h-9.296L649.125,68.249z"/>
	<path fill="#ED1C24" d="M671.946,68.249h8.922l-0.142,0.887c-0.426,1.81-0.763,3.016-1.011,3.637
		c2.749-3.583,6.262-5.393,10.536-5.393c2.271,0,3.956,0.461,5.056,1.384c1.101,0.904,1.827,2.288,2.2,4.15
		c1.525-1.897,3.122-3.299,4.824-4.186c1.703-0.888,3.672-1.349,5.943-1.349c1.632,0,3.086,0.354,4.328,1.047
		c1.241,0.709,2.075,1.738,2.501,3.086c0.178,0.656,0.283,1.401,0.283,2.253c-0.053,1.171-0.318,2.892-0.798,5.162l-5.375,25.863
		h-9.295l4.932-23.451c0.39-2.146,0.585-3.405,0.585-3.778c0-1.933-0.922-2.909-2.767-2.909c-1.029,0-1.987,0.284-2.909,0.816
		c-0.923,0.55-1.668,1.295-2.253,2.235c-0.391,0.674-0.728,1.738-1.012,3.192l-5.02,23.895h-9.366l5.445-25.987
		c0.089-0.497,0.143-0.852,0.143-1.1c0-0.923-0.249-1.65-0.745-2.218c-0.497-0.55-1.242-0.834-2.235-0.834s-1.951,0.284-2.874,0.834
		c-0.922,0.567-1.632,1.295-2.128,2.218c-0.391,0.709-0.816,1.986-1.242,3.849l-4.86,23.238h-9.295L671.946,68.249z"/>
	<path fill="#ED1C24" d="M450.39,128.968h14.457c2.271,0,4.204,0.124,5.8,0.373c1.597,0.248,2.945,0.78,4.08,1.614
		c2.377,1.703,3.565,4.523,3.565,8.426c0,1.401-0.159,2.768-0.443,4.133c-1.064,5.021-3.299,8.799-6.688,11.335
		c-2.927,2.182-6.918,3.265-11.991,3.265h-5.002l-4.08,19.317h-9.792L450.39,128.968z M458.673,136.241l-3.051,14.599h3.051
		c2.377,0,4.116-0.337,5.233-1.011c1.986-1.188,3.281-3.282,3.85-6.262c0.177-1.064,0.283-1.881,0.283-2.466
		c0-1.827-0.585-3.157-1.738-3.991c-0.834-0.567-2.43-0.869-4.789-0.869H458.673z M483.354,140.889h9.082l-0.301,1.472
		c-0.231,1.26-0.604,2.75-1.082,4.506c2.731-4.417,6.208-6.634,10.466-6.634c0.674,0,1.082,0.035,1.241,0.07l-1.897,8.888
		c-0.764-0.143-1.562-0.23-2.396-0.23c-2.944,0-5.304,0.976-7.06,2.909c-0.905,1.028-1.579,2.554-2.022,4.576l-4.363,20.985h-9.296
		L483.354,140.889z"/>
	<path fill="#ED1C24" d="M528.528,160.561h-18.59l-0.355,1.827c-0.496,2.307-0.727,4.08-0.727,5.304
		c0,3.104,1.152,4.647,3.477,4.647c3.068,0,5.197-2.412,6.386-7.272h8.586c-0.656,2.803-1.703,5.233-3.14,7.272
		c-2.821,4.027-7.202,6.031-13.145,6.031c-2.768,0-4.985-0.426-6.67-1.295c-1.668-0.869-2.874-2.093-3.583-3.672
		c-0.71-1.561-1.064-3.441-1.064-5.641c0-1.969,0.337-4.63,1.011-7.982c0.852-4.08,1.916-7.539,3.211-10.377
		c1.295-2.839,3.193-5.109,5.712-6.812c2.501-1.703,5.782-2.572,9.827-2.572c7.06,0,10.607,3.441,10.607,10.306
		c0,1.987-0.354,4.595-1.028,7.858L528.528,160.561z M511.18,154.973h9.508c0.426-2.234,0.656-3.813,0.656-4.718
		c0-2.803-1.152-4.204-3.423-4.204c-2.005,0-3.495,0.852-4.471,2.554C512.475,150.308,511.712,152.419,511.18,154.973
		L511.18,154.973z M567.494,129.039l-10.11,48.392h-8.853l0.355-1.738c0.23-1.225,0.496-2.289,0.798-3.211
		c-1.312,1.951-2.749,3.423-4.311,4.417c-1.561,0.993-3.37,1.472-5.428,1.472c-4.151,0-6.776-1.685-7.841-5.073
		c-0.443-1.171-0.656-2.731-0.656-4.665c0-2.022,0.408-5.108,1.242-9.224c0.656-3.176,1.348-5.89,2.093-8.125
		s1.773-4.239,3.122-6.049c1.224-1.614,2.696-2.892,4.399-3.813c1.703-0.923,3.494-1.401,5.339-1.401
		c4.08,0,6.528,1.667,7.344,5.002c0.054-0.461,0.249-1.597,0.586-3.405l2.607-12.577H567.494z M542.128,159.195
		c-0.674,3.228-1.011,6.19-1.011,8.869c0.23,2.129,1.384,3.192,3.477,3.192c1.649,0,2.98-0.674,4.009-2.021
		c1.012-1.349,1.721-2.75,2.129-4.187c0.391-1.419,0.852-3.353,1.348-5.783c0.568-2.625,0.958-4.913,1.171-6.829
		c0-1.703-0.248-3.016-0.709-3.956c-0.462-0.939-1.419-1.419-2.856-1.419c-2.164,0-3.796,1.136-4.932,3.406
		c-0.479,0.922-0.869,1.845-1.152,2.767c-0.302,0.94-0.586,2.005-0.852,3.211C542.465,157.651,542.27,158.574,542.128,159.195
		L542.128,159.195z"/>
	<path fill="#ED1C24" d="M571.841,140.889h9.295l-7.628,36.542h-9.295L571.841,140.889z M574.306,128.968h9.313l-1.686,8.071h-9.295
		L574.306,128.968z M601.207,163.328h8.639c-0.958,4.222-2.324,7.396-4.062,9.525c-1.667,2.094-3.548,3.53-5.605,4.328
		c-2.075,0.799-4.435,1.188-7.113,1.188c-2.536,0-4.647-0.337-6.332-1.046c-1.686-0.71-2.98-1.97-3.903-3.814
		c-0.727-1.597-1.082-3.512-1.082-5.747c0-2.182,0.355-4.967,1.082-8.354c1.26-6.031,3.265-10.785,6.014-14.227
		c2.75-3.441,6.883-5.162,12.436-5.162c3.796,0,6.599,0.763,8.372,2.253c1.774,1.508,2.679,3.778,2.679,6.829
		c0,1.401-0.178,2.944-0.515,4.647h-8.869c0.284-1.632,0.443-2.82,0.443-3.565c0-2.519-1.117-3.778-3.353-3.778
		c-2.129,0-3.778,1.224-4.932,3.637c-1.064,2.004-1.986,5.037-2.767,9.082c-0.816,3.583-1.225,6.244-1.225,7.982
		c0,0.958,0.089,1.773,0.284,2.412c0.372,1.65,1.454,2.466,3.264,2.466c1.969,0,3.424-0.815,4.364-2.483
		C599.947,167.834,600.675,165.776,601.207,163.328L601.207,163.328z"/>
	<path fill="#ED1C24" d="M616.314,140.889h4.736l2.164-10.396h9.384l-2.182,10.396h5.517l-1.384,6.616h-5.517l-4.204,20.347
		c-0.106,0.656-0.16,1.064-0.16,1.241c0,1.313,0.799,1.951,2.413,1.951c1.1,0,1.969-0.018,2.607-0.088l-1.384,6.475
		c-1.827,0.354-3.689,0.514-5.588,0.514c-4.967,0-7.609-1.224-7.929-3.689c0-2.342,0.195-4.363,0.585-6.031l4.293-20.719h-4.719
		L616.314,140.889z M640.424,140.889h9.296l-7.628,36.542h-9.295L640.424,140.889z M642.89,128.968h9.313l-1.686,8.071h-9.295
		L642.89,128.968z"/>
	<path fill="#ED1C24" d="M651.384,159.124c0.586-2.838,1.312-5.375,2.182-7.628c0.869-2.235,2.005-4.222,3.406-5.942
		s3.157-3.068,5.286-4.062c2.11-0.976,4.612-1.472,7.503-1.472c4.24,0,7.22,0.904,8.959,2.696c1.72,1.81,2.59,4.381,2.59,7.752
		c0,2.306-0.373,5.162-1.083,8.585c-0.851,3.956-1.933,7.326-3.264,10.094c-1.348,2.767-3.246,5.002-5.747,6.688
		c-2.483,1.703-5.641,2.536-9.455,2.536c-2.572,0-4.7-0.319-6.403-0.976c-1.686-0.656-2.944-1.756-3.796-3.281
		s-1.26-3.602-1.26-6.209C650.302,165.563,650.656,162.636,651.384,159.124L651.384,159.124z M660.821,159.053
		c-0.781,3.832-1.153,6.563-1.153,8.213c0,3.158,1.153,4.719,3.477,4.719c1.862,0,3.37-0.993,4.506-3.016
		c1.135-2.004,2.164-5.286,3.122-9.845c0.78-3.707,1.171-6.403,1.171-8.071c0-3.087-1.171-4.647-3.495-4.647
		c-1.419,0-2.59,0.515-3.529,1.543c-0.94,1.029-1.703,2.431-2.307,4.187C662.01,153.891,661.424,156.197,660.821,159.053
		L660.821,159.053z M698.226,140.889l-0.213,1.1c-0.106,0.515-0.248,1.117-0.426,1.773c-0.177,0.675-0.337,1.26-0.443,1.721
		c2.661-3.636,6.191-5.463,10.608-5.463c3.246,0,5.445,0.976,6.616,2.892c0.621,1.135,0.94,2.412,0.94,3.849
		c0,1.136-0.178,2.448-0.515,3.938l-5.588,26.732h-9.366l4.86-23.167c0.391-2.235,0.586-3.548,0.586-3.921
		c0-2.021-0.958-3.051-2.838-3.051c-3.441,0-5.588,2.04-6.476,6.103l-5.002,24.036h-9.295l7.628-36.542H698.226z"/>
	<path fill="#ED1C24" d="M563.264,231.818h9.579c-0.816,3.938-1.969,7.326-3.477,10.146c-1.525,2.839-3.619,5.056-6.28,6.67
		c-2.66,1.632-5.978,2.431-9.934,2.431c-2.234,0-4.168-0.23-5.818-0.71c-1.649-0.461-3.033-1.259-4.168-2.395
		c-1.136-1.135-1.934-2.661-2.431-4.595c-0.354-1.259-0.515-2.643-0.515-4.133c0-1.171,0.125-2.696,0.373-4.576
		c0.195-1.951,0.674-4.736,1.454-8.355c1.242-6.066,2.52-10.661,3.85-13.818c1.632-4.062,4.293-7.184,7.982-9.366
		c2.838-1.597,6.297-2.395,10.395-2.395c6.457,0,10.324,2.359,11.637,7.042c0.23,0.852,0.355,1.881,0.355,3.122
		c-0.071,2.005-0.373,4.275-0.94,6.83h-9.525c0.479-2.076,0.727-3.814,0.727-5.233c0-3.229-1.383-4.86-4.133-4.86
		c-2.998,0-5.197,1.703-6.616,5.091c-0.799,1.898-1.438,3.743-1.898,5.517c-0.461,1.774-1.064,4.364-1.81,7.77
		c-1.1,5.357-1.702,9.562-1.809,12.577c0,3.726,1.437,5.588,4.346,5.588c2.643,0,4.559-1.171,5.747-3.513
		C561.543,238.312,562.519,235.366,563.264,231.818L563.264,231.818z M604.355,233.256h-18.59l-0.355,1.827
		c-0.496,2.306-0.727,4.079-0.727,5.304c0,3.104,1.152,4.647,3.477,4.647c3.068,0,5.197-2.412,6.386-7.273h8.586
		c-0.656,2.803-1.703,5.233-3.14,7.273c-2.821,4.026-7.202,6.031-13.145,6.031c-2.768,0-4.984-0.426-6.67-1.295
		c-1.668-0.869-2.874-2.094-3.583-3.672c-0.71-1.562-1.064-3.441-1.064-5.642c0-1.969,0.337-4.629,1.011-7.982
		c0.852-4.079,1.916-7.538,3.211-10.377c1.295-2.838,3.193-5.108,5.712-6.812c2.501-1.703,5.783-2.572,9.827-2.572
		c7.06,0,10.607,3.441,10.607,10.307c0,1.986-0.354,4.594-1.028,7.858L604.355,233.256z M587.007,227.668h9.508
		c0.426-2.235,0.656-3.813,0.656-4.719c0-2.803-1.152-4.204-3.423-4.204c-2.005,0-3.495,0.852-4.471,2.555
		S587.539,225.113,587.007,227.668L587.007,227.668z"/>
	<path fill="#ED1C24" d="M622.78,213.583l-0.213,1.101c-0.106,0.514-0.248,1.117-0.426,1.773c-0.178,0.674-0.337,1.26-0.443,1.721
		c2.661-3.637,6.19-5.464,10.607-5.464c3.246,0,5.446,0.976,6.617,2.892c0.62,1.136,0.939,2.412,0.939,3.85
		c0,1.135-0.177,2.447-0.515,3.938l-5.587,26.732h-9.366l4.86-23.167c0.391-2.234,0.585-3.548,0.585-3.92
		c0-2.022-0.958-3.051-2.838-3.051c-3.441,0-5.588,2.04-6.475,6.102l-5.002,24.036h-9.296l7.628-36.542H622.78z M644.569,213.583
		h4.736l2.164-10.395h9.384l-2.182,10.395h5.517l-1.384,6.617h-5.517l-4.204,20.346c-0.106,0.656-0.16,1.064-0.16,1.242
		c0,1.312,0.799,1.951,2.413,1.951c1.1,0,1.969-0.018,2.607-0.089l-1.384,6.475c-1.827,0.354-3.689,0.515-5.588,0.515
		c-4.967,0-7.609-1.224-7.929-3.689c0-2.342,0.195-4.364,0.585-6.031l4.293-20.719h-4.719L644.569,213.583z"/>
	<path fill="#ED1C24" d="M691.027,233.256h-18.591l-0.354,1.827c-0.497,2.306-0.728,4.079-0.728,5.304
		c0,3.104,1.153,4.647,3.477,4.647c3.069,0,5.198-2.412,6.387-7.273h8.585c-0.656,2.803-1.703,5.233-3.14,7.273
		c-2.82,4.026-7.202,6.031-13.145,6.031c-2.767,0-4.984-0.426-6.67-1.295c-1.667-0.869-2.873-2.094-3.583-3.672
		c-0.709-1.562-1.064-3.441-1.064-5.642c0-1.969,0.337-4.629,1.012-7.982c0.852-4.079,1.916-7.538,3.211-10.377
		c1.295-2.838,3.192-5.108,5.711-6.812c2.502-1.703,5.783-2.572,9.828-2.572c7.06,0,10.607,3.441,10.607,10.307
		c0,1.986-0.354,4.594-1.029,7.858L691.027,233.256z M673.679,227.668h9.508c0.426-2.235,0.656-3.813,0.656-4.719
		c0-2.803-1.153-4.204-3.424-4.204c-2.004,0-3.494,0.852-4.47,2.555S674.211,225.113,673.679,227.668L673.679,227.668z"/>
	<path fill="#ED1C24" d="M700.484,213.583h9.083l-0.302,1.473c-0.23,1.26-0.604,2.749-1.082,4.506
		c2.731-4.417,6.208-6.635,10.466-6.635c0.674,0,1.082,0.036,1.241,0.071l-1.897,8.887c-0.763-0.142-1.562-0.23-2.396-0.23
		c-2.944,0-5.304,0.976-7.06,2.909c-0.904,1.029-1.579,2.555-2.022,4.577l-4.363,20.984h-9.295L700.484,213.583z"/>
	<path fill="#231F20" d="M502.402,263.882h4.677l1.99,13.807l2.867-13.807h3.772l-4.192,20.192h-4.621l-2.019-13.866l-2.903,13.866
		h-3.772L502.402,263.882z M515.325,276.446c0.242-1.183,0.544-2.239,0.904-3.178c0.363-0.932,0.834-1.76,1.416-2.477
		c0.583-0.717,1.312-1.278,2.197-1.692c0.875-0.406,1.915-0.613,3.115-0.613c1.76,0,2.998,0.377,3.72,1.123
		c0.716,0.754,1.076,1.826,1.076,3.23c0,0.961-0.154,2.15-0.449,3.577c-0.353,1.648-0.802,3.053-1.354,4.205
		c-0.562,1.153-1.348,2.085-2.389,2.787c-1.032,0.709-2.342,1.057-3.926,1.057c-1.07,0-1.955-0.133-2.661-0.406
		c-0.701-0.273-1.224-0.732-1.576-1.367c-0.354-0.636-0.523-1.501-0.523-2.587C514.875,279.13,515.023,277.91,515.325,276.446
		L515.325,276.446z M519.245,276.417c-0.325,1.597-0.479,2.734-0.479,3.422c0,1.315,0.479,1.966,1.442,1.966
		c0.774,0,1.401-0.414,1.871-1.256c0.474-0.836,0.899-2.203,1.298-4.103c0.325-1.545,0.485-2.668,0.485-3.363
		c0-1.285-0.485-1.936-1.452-1.936c-0.588,0-1.073,0.214-1.466,0.643c-0.391,0.429-0.707,1.013-0.958,1.744
		C519.739,274.266,519.493,275.227,519.245,276.417L519.245,276.417z"/>
	<path fill="#231F20" d="M531.153,268.849h3.772l-0.127,0.613c-0.095,0.524-0.248,1.146-0.449,1.877
		c1.136-1.84,2.578-2.764,4.349-2.764c0.278,0,0.449,0.015,0.515,0.029l-0.789,3.703c-0.316-0.06-0.647-0.097-0.993-0.097
		c-1.225,0-2.203,0.407-2.934,1.213c-0.375,0.429-0.656,1.063-0.839,1.906l-1.812,8.744h-3.861L531.153,268.849z M540.638,268.849
		h3.708l-0.06,0.369c-0.178,0.754-0.316,1.257-0.42,1.516c1.142-1.493,2.602-2.247,4.376-2.247c0.943,0,1.644,0.192,2.102,0.576
		c0.456,0.377,0.757,0.954,0.914,1.729c0.633-0.791,1.295-1.375,2.004-1.744c0.707-0.369,1.522-0.562,2.466-0.562
		c0.681,0,1.283,0.147,1.801,0.436c0.515,0.296,0.86,0.725,1.038,1.286c0.073,0.273,0.118,0.584,0.118,0.939
		c-0.024,0.487-0.134,1.204-0.331,2.15l-2.232,10.776h-3.861l2.046-9.771c0.163-0.895,0.245-1.419,0.245-1.574
		c0-0.806-0.384-1.212-1.149-1.212c-0.429,0-0.825,0.118-1.21,0.34c-0.381,0.229-0.691,0.54-0.934,0.932
		c-0.163,0.28-0.302,0.724-0.42,1.33l-2.087,9.956h-3.892l2.265-10.828c0.036-0.207,0.06-0.354,0.06-0.458
		c0-0.385-0.104-0.688-0.311-0.924c-0.207-0.229-0.518-0.348-0.928-0.348c-0.414,0-0.811,0.118-1.195,0.348
		c-0.381,0.236-0.677,0.539-0.884,0.924c-0.162,0.295-0.34,0.827-0.515,1.604l-2.019,9.683h-3.861L540.638,268.849z"/>
	<path fill="#231F20" d="M560.901,273.476c0.198-0.791,0.426-1.464,0.671-2.011c0.249-0.547,0.609-1.027,1.082-1.441
		c1.142-1.02,2.821-1.537,5.041-1.537c1.649,0,2.865,0.348,3.646,1.027c0.487,0.451,0.73,1.086,0.73,1.907
		c0,0.369-0.08,0.953-0.243,1.751l-1.599,7.724c-0.198,0.946-0.302,1.7-0.302,2.27c0,0.333,0.029,0.636,0.089,0.909h-3.772
		c0-0.828,0.029-1.441,0.089-1.848c-1.062,1.493-2.543,2.239-4.438,2.239c-0.957,0-1.679-0.259-2.179-0.791
		c-0.502-0.524-0.745-1.271-0.745-2.232c0-0.458,0.06-0.968,0.178-1.515c0.213-1.057,0.553-1.893,1.022-2.513
		c0.474-0.614,1.062-1.087,1.769-1.42c0.706-0.325,1.62-0.62,2.734-0.879c0.376-0.081,0.76-0.17,1.15-0.259
		c0.39-0.089,0.751-0.199,1.097-0.325c0.34-0.126,0.604-0.288,0.804-0.48c0.116-0.104,0.204-0.229,0.278-0.385
		c0.074-0.147,0.133-0.325,0.187-0.524c0.044-0.199,0.079-0.348,0.101-0.451c0-1.123-0.449-1.692-1.354-1.692
		c-0.76,0-1.327,0.215-1.709,0.636c-0.375,0.421-0.656,1.035-0.824,1.841H560.901z M567.539,276.232
		c-0.316,0.251-0.781,0.487-1.384,0.694l-0.908,0.273c-0.626,0.199-1.111,0.474-1.466,0.813c-0.352,0.347-0.604,0.835-0.736,1.456
		c-0.065,0.266-0.095,0.51-0.095,0.731c0,0.429,0.104,0.783,0.316,1.05c0.213,0.266,0.515,0.398,0.89,0.398
		c1.041,0,1.812-0.45,2.33-1.359c0.213-0.333,0.405-0.887,0.573-1.663l0.178-0.969c0.053-0.251,0.104-0.517,0.162-0.783
		C567.459,276.609,567.503,276.395,567.539,276.232L567.539,276.232z M579.379,268.849l-0.088,0.458
		c-0.045,0.214-0.104,0.466-0.178,0.739c-0.074,0.28-0.139,0.524-0.184,0.717c1.106-1.516,2.572-2.276,4.405-2.276
		c1.349,0,2.262,0.406,2.75,1.205c0.257,0.473,0.39,1.005,0.39,1.604c0,0.473-0.073,1.02-0.213,1.641l-2.32,11.139h-3.891
		l2.019-9.653c0.16-0.931,0.243-1.478,0.243-1.633c0-0.843-0.399-1.271-1.18-1.271c-1.428,0-2.321,0.85-2.69,2.543l-2.075,10.015
		h-3.861l3.166-15.226H579.379z"/>
	<path fill="#231F20" d="M587.675,279.713h3.803l-0.574,2.728c-0.201,1.035-0.404,1.899-0.62,2.595
		c-0.213,0.694-0.554,1.353-1.009,1.974c-0.76,0.99-1.916,1.574-3.471,1.759l0.391-1.937c0.671-0.118,1.149-0.414,1.437-0.88
		c0.281-0.458,0.509-1.086,0.68-1.877h-1.54L587.675,279.713z"/>
	<path fill="#231F20" d="M602.511,273.992c0.429-2.099,0.929-3.888,1.52-5.373c0.588-1.479,1.487-2.705,2.696-3.673
		c1.209-0.969,2.82-1.456,4.84-1.456c1.975,0,3.376,0.458,4.187,1.374c0.81,0.917,1.215,2.195,1.215,3.829
		c0,1.094-0.242,2.846-0.722,5.27c-0.435,2.077-0.937,3.807-1.511,5.188c-0.576,1.383-1.215,2.454-1.939,3.223
		c-0.721,0.769-1.531,1.309-2.438,1.619c-0.914,0.317-1.967,0.473-3.167,0.473c-1.851,0-3.204-0.392-4.059-1.175
		c-0.854-0.784-1.283-2.137-1.283-4.059C601.849,277.828,602.07,276.077,602.511,273.992L602.511,273.992z M606.674,273.934
		c-0.5,2.469-0.751,4.184-0.751,5.145c0,0.872,0.147,1.508,0.449,1.906c0.302,0.406,0.789,0.606,1.451,0.606
		c0.722,0,1.318-0.236,1.807-0.725c0.479-0.48,0.904-1.264,1.274-2.357c0.366-1.094,0.76-2.609,1.171-4.546
		c0.522-2.438,0.789-4.124,0.789-5.056c0-1.692-0.636-2.542-1.901-2.542c-0.884,0-1.59,0.347-2.122,1.034
		c-0.538,0.688-0.929,1.471-1.18,2.351C607.412,270.637,607.078,272.026,606.674,273.934L606.674,273.934z M620.737,263.882h3.802
		l-2.202,10.688l5.159-5.721h4.325l-5.623,6.023l3.08,9.202h-4.29l-1.957-6.268l-1.747,1.818l-0.938,4.449h-3.802L620.737,263.882z"
		/>
	<path fill="#231F20" d="M634.763,263.882h3.867l-4.198,20.192h-3.861L634.763,263.882z M639.384,273.476
		c0.198-0.791,0.426-1.464,0.668-2.011c0.251-0.547,0.612-1.027,1.085-1.441c1.142-1.02,2.82-1.537,5.038-1.537
		c1.652,0,2.867,0.348,3.648,1.027c0.487,0.451,0.729,1.086,0.729,1.907c0,0.369-0.082,0.953-0.242,1.751l-1.6,7.724
		c-0.201,0.946-0.301,1.7-0.301,2.27c0,0.333,0.026,0.636,0.085,0.909h-3.772c0-0.828,0.03-1.441,0.089-1.848
		c-1.062,1.493-2.539,2.239-4.435,2.239c-0.958,0-1.68-0.259-2.182-0.791c-0.5-0.524-0.742-1.271-0.742-2.232
		c0-0.458,0.059-0.968,0.175-1.515c0.216-1.057,0.553-1.893,1.025-2.513c0.47-0.614,1.062-1.087,1.768-1.42
		c0.707-0.325,1.62-0.62,2.735-0.879c0.375-0.081,0.757-0.17,1.146-0.259c0.391-0.089,0.754-0.199,1.101-0.325
		c0.337-0.126,0.603-0.288,0.801-0.48c0.118-0.104,0.207-0.229,0.281-0.385c0.073-0.147,0.133-0.325,0.183-0.524
		c0.045-0.199,0.083-0.348,0.104-0.451c0-1.123-0.449-1.692-1.354-1.692c-0.76,0-1.328,0.215-1.709,0.636
		c-0.379,0.421-0.656,1.035-0.828,1.841H639.384z M646.021,276.232c-0.316,0.251-0.78,0.487-1.383,0.694l-0.908,0.273
		c-0.627,0.199-1.111,0.474-1.466,0.813c-0.355,0.347-0.604,0.835-0.736,1.456c-0.068,0.266-0.098,0.51-0.098,0.731
		c0,0.429,0.104,0.783,0.319,1.05c0.213,0.266,0.515,0.398,0.89,0.398c1.041,0,1.812-0.45,2.33-1.359
		c0.213-0.333,0.404-0.887,0.573-1.663l0.178-0.969c0.05-0.251,0.104-0.517,0.162-0.783
		C645.941,276.609,645.985,276.395,646.021,276.232L646.021,276.232z"/>
	<path fill="#231F20" d="M659.035,263.882l-1.111,5.358c-0.104,0.487-0.222,0.961-0.367,1.419c0.515-0.725,1.162-1.271,1.928-1.648
		c0.769-0.369,1.579-0.562,2.419-0.562c0.766,0,1.428,0.199,1.975,0.591c0.544,0.399,0.884,0.946,1.017,1.656
		c0,0.82-0.112,1.818-0.331,2.993l-2.176,10.385h-3.861l1.99-9.594c0.177-0.843,0.274-1.404,0.274-1.7
		c0-0.843-0.414-1.271-1.238-1.271c-0.405,0-0.796,0.111-1.18,0.325c-0.382,0.215-0.701,0.503-0.935,0.857
		c-0.236,0.34-0.414,0.865-0.547,1.574l-2.049,9.809h-3.861l4.195-20.192H659.035z M666.077,276.446
		c0.243-1.183,0.544-2.239,0.905-3.178c0.363-0.932,0.833-1.76,1.416-2.477c0.582-0.717,1.312-1.278,2.196-1.692
		c0.875-0.406,1.916-0.613,3.116-0.613c1.759,0,2.998,0.377,3.72,1.123c0.715,0.754,1.076,1.826,1.076,3.23
		c0,0.961-0.154,2.15-0.45,3.577c-0.352,1.648-0.801,3.053-1.354,4.205c-0.562,1.153-1.349,2.085-2.389,2.787
		c-1.032,0.709-2.342,1.057-3.927,1.057c-1.07,0-1.954-0.133-2.66-0.406c-0.701-0.273-1.225-0.732-1.576-1.367
		c-0.354-0.636-0.523-1.501-0.523-2.587C665.628,279.13,665.776,277.91,666.077,276.446L666.077,276.446z M669.998,276.417
		c-0.325,1.597-0.479,2.734-0.479,3.422c0,1.315,0.479,1.966,1.443,1.966c0.774,0,1.401-0.414,1.871-1.256
		c0.473-0.836,0.898-2.203,1.298-4.103c0.322-1.545,0.484-2.668,0.484-3.363c0-1.285-0.484-1.936-1.451-1.936
		c-0.588,0-1.076,0.214-1.467,0.643c-0.39,0.429-0.706,1.013-0.957,1.744C670.491,274.266,670.246,275.227,669.998,276.417
		L669.998,276.417z"/>
	<path fill="#231F20" d="M681.835,268.849h3.705l-0.06,0.369c-0.177,0.754-0.316,1.257-0.42,1.516
		c1.142-1.493,2.602-2.247,4.376-2.247c0.943,0,1.644,0.192,2.102,0.576c0.456,0.377,0.757,0.954,0.914,1.729
		c0.633-0.791,1.295-1.375,2.004-1.744c0.707-0.369,1.526-0.562,2.469-0.562c0.678,0,1.28,0.147,1.798,0.436
		c0.515,0.296,0.86,0.725,1.038,1.286c0.073,0.273,0.118,0.584,0.118,0.939c-0.024,0.487-0.134,1.204-0.331,2.15l-2.232,10.776
		h-3.861l2.049-9.771c0.16-0.895,0.242-1.419,0.242-1.574c0-0.806-0.384-1.212-1.149-1.212c-0.429,0-0.825,0.118-1.21,0.34
		c-0.381,0.229-0.691,0.54-0.934,0.932c-0.163,0.28-0.302,0.724-0.42,1.33l-2.087,9.956h-3.888l2.262-10.828
		c0.035-0.207,0.059-0.354,0.059-0.458c0-0.385-0.104-0.688-0.311-0.924c-0.207-0.229-0.518-0.348-0.928-0.348
		c-0.414,0-0.811,0.118-1.194,0.348c-0.382,0.236-0.678,0.539-0.885,0.924c-0.162,0.295-0.34,0.827-0.514,1.604l-2.02,9.683h-3.861
		L681.835,268.849z M702.081,273.476c0.198-0.791,0.429-1.464,0.671-2.011c0.252-0.547,0.612-1.027,1.082-1.441
		c1.145-1.02,2.824-1.537,5.041-1.537c1.649,0,2.865,0.348,3.648,1.027c0.484,0.451,0.728,1.086,0.728,1.907
		c0,0.369-0.08,0.953-0.243,1.751l-1.599,7.724c-0.198,0.946-0.302,1.7-0.302,2.27c0,0.333,0.029,0.636,0.089,0.909h-3.772
		c0-0.828,0.029-1.441,0.088-1.848c-1.061,1.493-2.542,2.239-4.435,2.239c-0.958,0-1.682-0.259-2.182-0.791
		c-0.503-0.524-0.745-1.271-0.745-2.232c0-0.458,0.06-0.968,0.178-1.515c0.213-1.057,0.553-1.893,1.022-2.513
		c0.474-0.614,1.062-1.087,1.771-1.42c0.706-0.325,1.62-0.62,2.731-0.879c0.376-0.081,0.76-0.17,1.15-0.259
		c0.39-0.089,0.751-0.199,1.097-0.325c0.34-0.126,0.606-0.288,0.804-0.48c0.118-0.104,0.207-0.229,0.281-0.385
		c0.074-0.147,0.13-0.325,0.184-0.524c0.044-0.199,0.079-0.348,0.104-0.451c0-1.123-0.45-1.692-1.357-1.692
		c-0.757,0-1.324,0.215-1.709,0.636c-0.375,0.421-0.656,1.035-0.824,1.841H702.081z M708.722,276.232
		c-0.319,0.251-0.784,0.487-1.387,0.694l-0.905,0.273c-0.626,0.199-1.114,0.474-1.466,0.813c-0.354,0.347-0.606,0.835-0.739,1.456
		c-0.065,0.266-0.095,0.51-0.095,0.731c0,0.429,0.104,0.783,0.316,1.05c0.213,0.266,0.518,0.398,0.893,0.398
		c1.038,0,1.812-0.45,2.327-1.359c0.213-0.333,0.405-0.887,0.576-1.663l0.175-0.969c0.053-0.251,0.104-0.517,0.162-0.783
		C708.639,276.609,708.683,276.395,708.722,276.232L708.722,276.232z"/>
</g>
</svg>
