<svg id="svg" xmlns="http://www.w3.org/2000/svg" xmlns:xlink="http://www.w3.org/1999/xlink" width="400" height="396.734693877551" viewBox="0, 0, 400,396.734693877551" version="1.1"><g id="svgg"><path id="path0" d="M39.994 16.383 C 39.893 20.003,39.806 20.424,39.180 20.318 C 38.795 20.254,38.503 20.343,38.533 20.517 C 39.074 23.733,38.385 40.060,37.698 40.278 C 36.928 40.522,36.905 40.878,36.905 52.606 L 36.905 64.683 36.012 64.682 L 35.119 64.682 35.235 76.785 L 35.350 88.889 34.386 88.889 C 33.856 88.889,33.430 89.112,33.440 89.385 C 33.817 99.548,33.243 116.965,32.536 116.781 C 31.935 116.623,31.755 116.754,31.805 117.314 C 32.331 123.173,31.661 142.787,30.928 142.979 C 30.478 143.096,30.142 143.430,30.181 143.719 C 30.727 147.741,30.070 164.286,29.365 164.286 C 28.589 164.286,28.571 164.550,28.571 176.343 C 28.571 188.123,28.553 188.404,27.766 188.610 C 27.324 188.726,26.988 188.970,27.020 189.152 C 27.599 192.445,26.874 216.603,26.190 216.782 C 25.421 216.983,25.397 217.323,25.397 228.137 C 25.397 238.932,25.372 239.286,24.622 239.286 C 23.867 239.286,23.846 239.676,23.819 253.851 C 23.792 268.185,23.679 269.504,22.539 268.800 C 22.365 268.692,22.222 274.150,22.222 280.929 C 22.222 293.999,22.282 293.554,20.560 293.309 C 20.409 293.287,20.270 297.946,20.251 303.662 C 20.217 313.803,20.061 315.111,18.967 314.435 C 18.793 314.327,18.651 319.071,18.651 324.977 C 18.651 335.711,18.622 335.955,17.371 335.765 C 17.212 335.740,17.083 342.306,17.084 350.354 L 17.084 364.987 18.882 364.926 C 20.396 364.875,20.652 364.972,20.503 365.542 C 20.217 366.634,20.725 366.667,38.128 366.667 C 54.497 366.667,54.762 366.679,54.762 367.460 C 54.762 368.239,55.026 368.254,68.605 368.254 C 82.113 368.254,82.452 368.273,82.655 369.048 C 82.857 369.821,83.196 369.841,95.796 369.841 C 108.466 369.841,108.730 369.858,108.730 370.635 C 108.730 371.071,108.864 371.407,109.028 371.382 C 112.697 370.802,142.796 371.548,142.972 372.222 C 143.174 372.992,143.513 373.016,154.480 373.016 C 165.447 373.016,165.787 373.039,165.988 373.810 C 166.191 374.586,166.529 374.603,181.510 374.603 L 196.825 374.603 196.825 375.613 C 196.825 376.190,197.038 376.595,197.321 376.558 C 198.851 376.359,219.931 376.630,219.715 376.846 C 218.669 377.892,221.162 378.150,232.440 378.162 C 242.091 378.172,244.048 378.268,244.048 378.727 C 244.048 379.684,245.022 379.762,256.977 379.762 C 268.470 379.762,268.651 379.774,268.651 380.573 C 268.651 381.019,268.874 381.355,269.147 381.320 C 272.591 380.872,311.111 381.439,311.111 381.937 C 311.111 382.900,312.260 382.964,327.381 382.849 L 341.865 382.738 341.978 378.671 C 342.082 374.930,342.154 374.603,342.871 374.603 C 343.300 374.603,343.630 374.469,343.604 374.306 C 342.997 370.465,343.774 335.775,344.470 335.593 C 345.585 335.301,345.465 332.270,344.345 332.458 C 343.835 332.543,343.651 332.306,343.651 331.565 C 343.651 330.820,343.859 330.556,344.444 330.556 C 345.224 330.556,345.238 330.291,345.238 315.900 C 345.238 301.592,345.257 301.238,346.032 300.992 C 346.810 300.745,346.825 300.392,346.825 282.910 C 346.825 273.103,346.959 265.101,347.123 265.126 C 348.393 265.327,348.413 265.126,348.413 252.277 L 348.413 239.474 349.306 239.082 L 350.198 238.690 350.302 221.752 C 350.400 205.641,350.441 204.801,351.143 204.579 C 351.783 204.375,351.890 203.867,351.954 200.711 C 352.034 196.725,352.129 196.357,352.989 196.687 C 353.387 196.840,353.571 196.646,353.571 196.074 C 353.571 194.831,359.723 194.783,360.116 196.023 C 360.358 196.786,360.715 196.806,372.346 196.718 L 384.325 196.627 384.524 195.040 C 384.675 193.830,384.882 193.479,385.392 193.563 C 386.007 193.665,386.066 192.792,386.098 183.077 C 386.132 173.002,386.173 172.452,386.916 171.931 C 387.663 171.408,387.698 170.880,387.698 160.268 C 387.698 149.333,387.711 149.157,388.492 149.405 C 389.272 149.652,389.286 149.476,389.286 138.916 C 389.286 128.507,389.310 128.175,390.065 128.175 C 390.827 128.175,390.844 127.784,390.865 109.323 C 390.877 98.955,390.750 90.494,390.582 90.521 C 389.779 90.651,389.286 90.426,389.286 89.931 C 389.286 89.082,387.406 88.889,379.163 88.889 C 371.819 88.889,371.513 88.858,371.311 88.084 C 371.195 87.641,370.951 87.305,370.768 87.337 C 367.394 87.931,338.889 87.190,338.889 86.508 C 338.889 85.832,338.624 85.714,337.103 85.714 L 335.317 85.714 335.317 74.206 L 335.317 62.698 336.210 62.698 L 337.103 62.698 337.103 44.841 L 337.103 26.984 336.210 26.984 C 335.582 26.984,335.317 26.749,335.317 26.190 C 335.317 25.423,335.053 25.397,327.183 25.397 C 319.312 25.397,319.048 25.371,319.048 24.603 C 319.048 23.820,318.783 23.810,299.440 23.810 C 280.992 23.810,279.838 23.768,279.934 23.115 C 280.030 22.464,278.809 22.408,260.355 22.222 C 245.019 22.068,240.664 21.914,240.625 21.528 C 240.598 21.255,240.553 20.867,240.526 20.666 C 240.497 20.452,235.161 20.281,227.693 20.254 C 215.102 20.210,213.844 20.083,214.554 18.935 C 214.672 18.743,214.437 18.621,214.031 18.664 C 208.683 19.230,183.730 18.565,183.730 17.857 C 183.730 17.421,183.596 17.085,183.433 17.110 C 179.763 17.690,149.222 16.944,149.008 16.270 C 148.762 15.493,148.408 15.476,132.711 15.476 C 117.039 15.476,116.667 15.458,116.667 14.698 C 116.667 13.937,116.276 13.920,98.958 13.897 C 80.667 13.873,80.439 13.860,80.816 12.877 C 81.015 12.361,78.517 12.291,60.575 12.309 L 40.107 12.329 39.994 16.383 M50.243 21.754 C 50.151 21.902,57.009 21.973,65.484 21.911 L 80.894 21.799 81.022 22.705 L 81.151 23.611 99.702 23.714 C 117.774 23.815,118.254 23.837,118.254 24.589 C 118.254 25.338,118.669 25.361,132.790 25.387 C 147.558 25.415,148.229 25.461,147.863 26.413 C 147.691 26.861,150.404 26.955,163.988 26.975 C 180.104 26.999,181.418 27.100,180.704 28.255 C 180.597 28.429,187.820 28.571,196.756 28.571 C 212.669 28.571,213.007 28.588,213.210 29.365 C 213.411 30.134,213.751 30.159,223.971 30.159 L 234.524 30.159 234.524 31.703 C 234.524 32.990,234.370 33.286,233.597 33.480 C 232.703 33.704,232.676 33.824,232.852 36.862 C 233.030 39.933,233.011 40.015,232.094 40.145 C 231.184 40.273,231.158 40.377,231.284 43.353 L 231.415 46.429 230.390 46.429 C 229.393 46.429,229.365 46.499,229.365 49.008 C 229.365 51.468,229.197 51.811,228.075 51.634 C 227.912 51.608,227.778 52.647,227.778 53.942 C 227.778 55.961,227.663 56.332,226.970 56.552 C 225.819 56.917,225.930 64.561,227.083 64.368 C 227.596 64.281,227.778 64.520,227.778 65.278 C 227.778 65.869,227.988 66.277,228.274 66.240 C 228.547 66.205,229.350 66.197,230.060 66.223 L 231.349 66.270 231.349 68.623 C 231.349 70.748,231.264 70.989,230.473 71.103 C 229.990 71.173,229.499 71.587,229.381 72.024 C 229.263 72.460,228.899 72.817,228.571 72.817 C 228.244 72.817,227.976 73.037,227.976 73.306 C 227.976 73.574,227.574 74.076,227.083 74.420 C 226.343 74.938,226.190 75.415,226.190 77.205 C 226.190 79.101,226.093 79.365,225.397 79.365 C 224.739 79.365,224.603 79.630,224.603 80.906 C 224.603 82.113,224.431 82.492,223.810 82.655 C 223.127 82.833,223.016 83.196,223.016 85.243 C 223.016 87.486,222.966 87.611,222.160 87.400 C 221.574 87.247,221.394 87.321,221.588 87.636 C 221.744 87.889,221.683 88.095,221.452 88.095 C 221.208 88.095,221.032 88.993,221.032 90.231 C 221.032 92.044,220.910 92.400,220.227 92.578 C 219.784 92.694,219.448 92.938,219.480 93.121 C 219.745 94.624,219.372 97.222,218.892 97.222 C 218.210 97.222,218.032 97.717,217.892 100.000 C 217.787 101.705,217.268 102.554,216.586 102.133 C 216.412 102.025,216.270 103.109,216.270 104.540 C 216.270 106.878,216.189 107.143,215.476 107.143 C 214.749 107.143,214.683 107.407,214.683 110.317 C 214.683 113.128,214.599 113.492,213.957 113.492 C 213.349 113.492,213.216 113.860,213.140 115.750 C 213.035 118.348,212.894 118.701,212.090 118.393 C 211.615 118.210,211.508 118.649,211.508 120.791 C 211.508 123.148,211.428 123.413,210.714 123.413 C 210.053 123.413,209.921 123.677,209.921 125.000 C 209.921 126.461,209.656 126.796,208.631 126.634 C 208.467 126.608,208.333 126.932,208.333 127.353 C 208.333 127.846,208.014 128.165,207.440 128.246 C 206.844 128.331,206.586 128.604,206.664 129.067 C 206.770 129.695,205.142 130.073,203.472 129.809 C 203.309 129.783,203.196 129.896,203.222 130.060 C 203.362 130.947,203.086 131.349,202.338 131.349 C 201.749 131.349,201.572 131.529,201.737 131.959 C 202.003 132.654,201.326 133.007,199.592 133.078 C 198.646 133.117,198.413 133.304,198.413 134.024 C 198.413 134.656,198.179 134.921,197.619 134.921 C 197.090 134.921,196.825 135.185,196.825 135.714 C 196.825 136.243,196.561 136.508,196.032 136.508 C 195.503 136.508,195.238 136.772,195.238 137.302 C 195.238 137.831,194.974 138.095,194.444 138.095 C 193.915 138.095,193.651 138.360,193.651 138.889 C 193.651 139.553,193.386 139.683,192.026 139.683 C 190.762 139.683,190.358 139.850,190.204 140.440 C 190.095 140.856,189.642 141.292,189.197 141.408 C 188.691 141.540,188.472 141.836,188.611 142.199 C 188.750 142.561,188.535 142.857,188.038 142.987 C 187.601 143.101,187.149 143.553,187.035 143.991 C 186.905 144.487,186.609 144.703,186.247 144.564 C 185.883 144.424,185.588 144.643,185.456 145.150 C 185.339 145.595,184.903 146.047,184.487 146.156 C 183.898 146.310,183.730 146.714,183.730 147.979 C 183.730 149.579,183.709 149.603,182.304 149.603 C 181.212 149.603,180.830 149.789,180.671 150.397 C 180.556 150.836,180.129 151.190,179.716 151.190 C 179.233 151.190,178.968 151.471,178.968 151.984 C 178.968 152.558,178.704 152.778,178.011 152.778 C 177.324 152.778,177.084 152.974,177.159 153.472 C 177.241 154.013,176.903 154.211,175.636 154.365 C 174.605 154.491,174.045 154.749,174.110 155.068 C 174.166 155.346,173.764 155.743,173.217 155.951 C 172.670 156.159,172.222 156.590,172.222 156.908 C 172.222 157.226,171.869 157.598,171.437 157.736 C 171.005 157.873,170.692 158.197,170.742 158.457 C 170.797 158.738,170.225 158.979,169.326 159.053 C 168.152 159.150,167.737 159.392,167.450 160.147 C 167.247 160.680,166.858 161.071,166.586 161.015 C 166.313 160.959,166.030 161.305,165.957 161.784 C 165.871 162.344,165.623 162.578,165.262 162.439 C 164.920 162.308,164.524 162.612,164.247 163.221 C 163.997 163.770,163.439 164.311,163.007 164.424 C 162.575 164.537,162.340 164.820,162.484 165.053 C 162.630 165.289,162.295 165.649,161.730 165.864 C 161.171 166.076,160.714 166.522,160.714 166.855 C 160.714 167.190,160.370 167.460,159.943 167.460 C 159.386 167.460,159.215 167.680,159.325 168.254 C 159.465 168.979,158.950 169.270,157.837 169.095 C 157.674 169.069,157.540 170.107,157.540 171.402 C 157.540 173.408,157.422 173.793,156.746 174.008 C 156.023 174.238,155.952 174.608,155.952 178.201 C 155.952 181.846,155.894 182.143,155.178 182.143 C 154.505 182.143,154.387 182.468,154.285 184.623 C 154.184 186.739,154.064 187.086,153.466 186.985 C 153.081 186.920,152.789 187.009,152.818 187.184 C 152.848 187.358,152.851 189.241,152.825 191.369 L 152.778 195.238 150.992 195.238 C 149.471 195.238,149.206 195.121,149.206 194.444 C 149.206 193.783,148.942 193.651,147.619 193.651 C 146.296 193.651,146.032 193.519,146.032 192.857 C 146.032 192.196,145.767 192.063,144.444 192.063 C 143.048 192.063,142.857 191.953,142.857 191.141 C 142.857 190.279,142.703 190.219,140.476 190.219 C 138.249 190.219,138.095 190.279,138.095 191.141 C 138.095 191.799,137.868 192.063,137.302 192.063 C 136.772 192.063,136.508 192.328,136.508 192.857 C 136.508 193.444,136.243 193.651,135.492 193.651 C 134.934 193.651,134.562 193.789,134.667 193.958 C 135.049 194.577,134.288 197.024,133.714 197.024 C 133.343 197.024,133.063 197.565,132.937 198.525 C 132.827 199.351,132.579 200.005,132.386 199.979 C 131.748 199.894,131.361 200.963,131.355 202.831 C 131.350 204.341,131.206 204.707,130.544 204.880 C 130.101 204.996,129.765 205.240,129.798 205.422 C 130.020 206.688,129.732 206.746,123.242 206.746 C 116.890 206.746,116.719 206.724,116.595 205.900 C 116.470 205.068,116.342 205.054,109.226 205.129 L 101.984 205.204 101.984 196.682 C 101.984 187.960,101.877 186.905,100.996 186.905 C 100.717 186.905,100.396 186.548,100.282 186.111 C 100.092 185.384,99.741 185.317,96.069 185.317 C 92.328 185.317,92.063 185.265,92.063 184.524 C 92.063 183.783,91.799 183.730,88.095 183.730 C 84.392 183.730,84.127 183.677,84.127 182.937 C 84.127 182.193,83.862 182.143,79.960 182.143 C 76.058 182.143,75.794 182.092,75.794 181.349 C 75.794 180.649,75.529 180.556,73.557 180.556 C 71.292 180.556,69.444 179.424,69.444 178.037 C 69.444 177.750,68.828 177.502,67.971 177.444 C 66.487 177.344,66.071 177.164,66.071 176.624 C 66.071 175.705,63.600 173.810,62.402 173.810 C 61.238 173.810,60.910 173.494,61.064 172.520 C 61.090 172.356,60.977 172.243,60.813 172.269 C 59.941 172.407,59.524 172.141,59.524 171.448 C 59.524 170.774,59.199 170.657,57.044 170.555 C 55.156 170.465,54.563 170.294,54.563 169.841 C 54.563 169.114,55.013 169.157,46.825 169.097 C 40.938 169.054,40.079 168.967,40.079 168.415 C 40.079 168.067,39.722 167.689,39.286 167.575 C 38.087 167.262,38.065 159.331,39.262 159.018 C 40.000 158.825,40.034 158.355,40.067 147.778 C 40.101 136.993,40.249 135.678,41.350 136.359 C 41.523 136.466,41.637 136.231,41.603 135.837 C 41.106 130.108,41.752 111.931,42.460 111.706 C 43.229 111.462,43.254 111.106,43.254 100.172 C 43.254 89.153,43.273 88.889,44.048 88.889 C 44.823 88.889,44.841 88.624,44.841 77.358 C 44.841 68.998,44.963 65.901,45.282 66.099 C 46.253 66.699,46.417 64.775,46.422 52.679 C 46.429 40.038,46.450 39.832,47.718 40.032 C 47.882 40.058,48.016 35.960,48.016 30.926 C 48.016 21.952,48.032 21.777,48.810 22.024 C 49.381 22.205,49.603 22.095,49.603 21.630 C 49.603 21.275,49.785 21.097,50.006 21.234 C 50.228 21.371,50.335 21.605,50.243 21.754 M49.749 177.908 C 49.954 178.727,50.241 178.842,52.270 178.924 C 53.771 178.985,54.669 179.213,54.879 179.588 C 55.054 179.902,55.457 180.159,55.774 180.159 C 56.303 180.159,56.531 180.653,56.385 181.483 C 56.353 181.665,56.672 181.905,57.095 182.015 C 57.517 182.126,57.952 182.557,58.061 182.973 C 58.208 183.535,58.615 183.730,59.639 183.730 C 60.685 183.730,61.069 183.922,61.226 184.524 C 61.348 184.990,61.767 185.317,62.242 185.317 C 62.836 185.317,63.009 185.527,62.897 186.111 C 62.778 186.730,62.958 186.905,63.713 186.905 C 64.418 186.905,64.683 187.121,64.683 187.698 C 64.683 188.228,64.947 188.492,65.476 188.492 C 66.005 188.492,66.270 188.757,66.270 189.286 C 66.270 189.991,66.534 190.079,68.651 190.079 C 69.960 190.079,71.054 190.258,71.081 190.476 C 71.109 190.694,71.153 191.096,71.181 191.369 C 71.218 191.740,72.247 191.831,75.265 191.728 C 79.241 191.594,79.302 191.605,79.432 192.522 C 79.561 193.433,79.664 193.455,84.447 193.564 C 88.997 193.668,89.315 193.726,89.098 194.411 C 88.892 195.060,89.079 195.140,90.682 195.086 L 92.500 195.025 92.435 203.167 C 92.388 208.907,92.499 211.324,92.811 211.359 C 93.055 211.386,93.433 211.431,93.651 211.458 C 93.869 211.486,94.048 211.865,94.048 212.302 C 94.048 212.831,94.312 213.095,94.841 213.095 C 95.552 213.095,95.820 213.508,95.682 214.385 C 95.656 214.549,101.160 214.683,107.914 214.683 C 119.830 214.683,120.188 214.705,120.045 215.448 C 119.903 216.185,120.224 216.215,128.500 216.243 C 136.696 216.271,138.506 216.064,137.950 215.166 C 137.815 214.947,138.149 214.655,138.693 214.519 C 139.503 214.316,139.683 214.028,139.683 212.936 C 139.683 211.921,139.879 211.549,140.501 211.387 C 140.951 211.269,141.287 210.936,141.247 210.646 C 141.208 210.356,141.197 208.914,141.223 207.440 L 141.270 204.762 142.814 204.762 C 144.092 204.762,144.398 204.919,144.586 205.669 C 144.758 206.353,145.133 206.599,146.117 206.673 C 146.834 206.727,147.484 206.956,147.561 207.181 C 147.639 207.407,148.127 207.752,148.645 207.949 C 149.231 208.172,149.505 208.523,149.370 208.876 C 149.250 209.188,149.371 209.578,149.637 209.743 C 149.973 209.951,150.025 209.871,149.805 209.486 C 149.547 209.035,149.589 209.023,150.021 209.425 C 150.315 209.697,151.056 209.921,151.667 209.921 C 152.513 209.921,152.778 210.110,152.778 210.714 C 152.778 211.376,153.042 211.508,154.365 211.508 C 155.826 211.508,156.161 211.772,155.999 212.798 C 155.974 212.961,156.086 213.074,156.250 213.048 C 159.702 212.503,177.381 213.206,177.381 213.889 C 177.381 214.468,177.116 214.683,176.404 214.683 C 175.441 214.683,175.430 214.720,175.668 217.262 C 175.914 219.902,175.770 220.146,174.113 219.890 C 173.953 219.866,173.934 220.916,174.071 222.224 C 174.318 224.594,174.315 224.603,173.271 224.603 C 172.247 224.603,172.222 224.662,172.222 227.138 C 172.222 229.296,172.120 229.666,171.537 229.619 C 170.757 229.556,170.752 229.580,170.685 233.333 C 170.640 235.811,170.551 236.111,169.857 236.111 C 169.157 236.111,169.068 236.437,168.964 239.385 C 168.866 242.177,168.752 242.643,168.190 242.550 C 167.056 242.364,167.103 255.140,168.238 255.436 C 168.929 255.617,169.048 255.968,169.048 257.822 C 169.048 259.661,169.169 260.027,169.841 260.202 C 170.281 260.317,170.635 260.744,170.635 261.157 C 170.635 261.640,170.916 261.905,171.429 261.905 C 172.006 261.905,172.222 262.169,172.222 262.874 C 172.222 263.630,172.397 263.810,173.016 263.690 C 173.741 263.551,174.032 264.066,173.857 265.179 C 173.831 265.342,174.970 265.476,176.389 265.476 C 178.874 265.476,179.212 265.650,178.998 266.817 C 178.963 267.008,179.299 267.070,179.745 266.953 C 180.338 266.798,180.556 266.931,180.556 267.451 C 180.556 267.842,180.913 268.255,181.349 268.369 C 181.995 268.538,182.143 268.910,182.143 270.367 C 182.143 272.495,182.441 273.413,183.131 273.413 C 183.410 273.413,183.731 273.770,183.845 274.206 C 183.959 274.643,184.337 275.000,184.685 275.000 C 185.033 275.000,185.340 275.179,185.367 275.397 C 185.394 275.615,185.439 276.002,185.466 276.257 C 185.500 276.576,186.747 276.717,189.484 276.710 C 193.303 276.701,193.449 276.668,193.358 275.850 C 193.266 275.022,193.389 275.000,198.219 275.000 C 202.910 275.000,203.175 274.958,203.175 274.206 C 203.175 273.455,203.439 273.413,208.135 273.413 C 212.831 273.413,213.095 273.370,213.095 272.619 C 213.095 271.868,213.360 271.825,218.033 271.825 C 222.757 271.825,222.964 271.791,222.817 271.032 C 222.677 270.304,222.878 270.238,225.221 270.238 L 227.778 270.238 227.825 272.321 C 227.851 273.467,227.851 274.539,227.825 274.702 C 227.799 274.866,228.135 275.000,228.571 275.000 C 229.249 275.000,229.365 275.265,229.365 276.809 C 229.365 277.804,229.528 278.518,229.726 278.395 C 230.812 277.724,231.417 278.699,231.284 280.909 C 231.160 282.977,231.216 283.144,232.065 283.265 C 232.831 283.373,232.960 283.598,232.859 284.653 C 232.763 285.652,232.927 285.994,233.655 286.309 C 234.431 286.646,234.545 286.934,234.401 288.194 C 234.247 289.543,234.319 289.683,235.171 289.683 C 236.064 289.683,236.111 289.812,236.111 292.285 C 236.111 293.717,236.254 294.800,236.428 294.692 C 237.075 294.292,237.665 295.109,237.761 296.540 C 237.837 297.658,238.033 298.016,238.573 298.016 C 239.140 298.016,239.286 298.341,239.286 299.603 L 239.286 301.190 237.698 301.190 C 236.376 301.190,236.111 301.323,236.111 301.984 C 236.111 302.553,235.830 302.792,235.119 302.827 C 234.573 302.855,233.948 302.922,233.730 302.976 C 233.512 303.031,233.155 303.098,232.937 303.125 C 232.718 303.152,232.540 303.366,232.540 303.600 C 232.540 304.187,231.499 305.176,231.198 304.875 C 231.063 304.740,230.952 305.017,230.952 305.489 C 230.952 306.228,230.729 306.349,229.365 306.349 C 228.492 306.349,227.799 306.483,227.825 306.647 C 227.974 307.590,227.623 307.901,226.290 308.012 L 224.802 308.135 224.721 318.552 C 224.642 328.649,224.664 328.968,225.415 328.968 C 226.153 328.968,226.190 329.285,226.190 335.539 C 226.190 339.153,226.333 342.022,226.507 341.915 C 227.510 341.295,227.747 342.543,227.797 348.712 C 227.826 352.245,227.967 355.119,228.111 355.100 C 229.296 354.941,229.365 355.262,229.365 360.913 L 229.365 366.667 213.142 366.667 C 197.252 366.667,196.914 366.650,196.710 365.873 C 196.508 365.098,196.169 365.079,181.996 365.079 C 167.894 365.079,167.476 365.057,167.063 364.286 C 166.651 363.516,166.233 363.492,152.999 363.492 C 139.555 363.492,139.363 363.481,139.568 362.698 C 139.772 361.915,139.580 361.905,124.860 361.905 C 112.390 361.905,109.980 361.816,110.154 361.361 C 110.537 360.363,109.094 360.288,90.009 360.310 L 71.032 360.332 71.032 359.432 L 71.032 358.532 61.325 358.662 L 51.618 358.792 51.386 357.868 L 51.155 356.944 39.069 357.065 L 26.984 357.186 26.984 347.290 C 26.984 337.728,27.011 337.387,27.778 337.187 C 28.546 336.986,28.571 336.645,28.571 326.426 C 28.571 316.138,28.591 315.873,29.365 315.873 C 30.144 315.873,30.159 315.608,30.159 301.984 C 30.159 290.377,30.250 288.095,30.712 288.095 C 31.676 288.095,31.746 287.116,31.746 273.579 C 31.746 260.582,31.762 260.317,32.540 260.317 C 33.317 260.317,33.333 260.053,33.333 247.266 C 33.333 235.080,33.379 234.219,34.028 234.270 C 34.672 234.321,34.730 233.502,34.828 222.917 C 34.893 215.808,35.080 211.489,35.324 211.458 C 35.538 211.431,35.938 211.386,36.210 211.359 C 36.590 211.321,36.735 208.848,36.827 200.816 C 36.941 190.946,36.994 190.290,37.720 189.781 C 38.419 189.292,38.492 188.741,38.492 183.929 C 38.492 178.831,38.524 178.623,39.286 178.770 C 39.904 178.889,40.079 178.709,40.079 177.953 L 40.079 176.984 44.798 176.984 C 49.408 176.984,49.523 177.006,49.749 177.908 M253.968 225.397 C 253.968 226.176,254.233 226.190,268.624 226.190 C 282.931 226.190,283.286 226.209,283.532 226.984 C 283.778 227.759,284.132 227.778,298.195 227.778 C 312.272 227.778,312.611 227.796,312.813 228.571 C 313.016 229.345,313.355 229.365,325.955 229.365 C 338.624 229.365,338.889 229.381,338.889 230.159 C 338.889 230.688,339.153 230.952,339.683 230.952 C 340.434 230.952,340.476 231.217,340.476 235.886 C 340.476 240.471,340.420 240.837,339.683 241.071 C 338.907 241.318,338.889 241.672,338.889 256.574 C 338.889 271.916,338.876 272.074,337.599 271.872 C 337.436 271.847,337.302 279.593,337.302 289.087 C 337.302 305.759,337.276 306.349,336.550 306.349 C 335.346 306.349,335.317 306.772,335.317 324.834 C 335.317 342.149,335.306 342.301,334.046 342.117 C 333.893 342.094,333.755 348.628,333.740 356.635 C 333.713 370.963,333.600 372.282,332.459 371.577 C 332.285 371.470,332.143 371.753,332.143 372.206 C 332.143 373.021,332.033 373.029,322.321 372.924 C 313.187 372.825,312.508 372.768,312.618 372.117 C 312.683 371.731,312.594 371.440,312.420 371.469 C 308.924 372.058,278.237 371.313,278.060 370.635 C 277.859 369.869,277.518 369.841,268.291 369.841 C 259.148 369.841,258.730 369.808,258.730 369.084 C 258.730 368.360,258.280 368.325,248.330 368.273 C 242.609 368.244,237.882 368.173,237.823 368.115 C 237.765 368.056,237.704 362.174,237.688 355.043 C 237.671 347.912,237.533 342.095,237.380 342.117 C 236.222 342.285,236.130 341.914,236.023 336.607 C 235.917 331.380,235.875 331.134,235.020 330.759 C 233.719 330.188,233.598 315.873,234.894 315.873 C 235.316 315.873,235.774 315.516,235.913 315.079 C 236.054 314.636,236.513 314.286,236.955 314.286 C 237.390 314.286,237.657 314.143,237.550 313.969 C 237.163 313.343,237.953 312.722,239.263 312.622 C 240.151 312.554,240.659 312.285,240.781 311.816 C 240.919 311.291,241.365 311.111,242.530 311.111 C 243.390 311.111,244.006 310.969,243.899 310.795 C 243.501 310.151,244.312 309.558,245.720 309.463 C 246.517 309.409,247.160 309.267,247.149 309.147 C 247.048 308.072,247.295 307.592,247.841 307.802 C 248.255 307.961,248.533 307.759,248.681 307.194 C 248.803 306.730,249.060 306.327,249.253 306.300 C 249.445 306.272,249.807 306.228,250.057 306.200 C 251.002 306.097,250.589 298.235,249.631 298.087 C 248.961 297.984,248.810 297.673,248.810 296.401 C 248.810 295.106,248.675 294.841,248.016 294.841 C 247.354 294.841,247.222 294.577,247.222 293.254 C 247.222 291.931,247.090 291.667,246.429 291.667 C 245.750 291.667,245.635 291.402,245.635 289.835 C 245.635 288.198,245.550 288.025,244.841 288.210 C 244.114 288.401,243.640 285.791,244.007 283.612 C 244.036 283.438,243.745 283.349,243.359 283.414 C 242.798 283.508,242.619 283.176,242.460 281.746 C 242.351 280.764,242.128 280.005,241.964 280.060 C 241.113 280.343,240.873 280.016,240.873 278.571 C 240.873 277.698,240.739 277.005,240.575 277.031 C 239.453 277.208,239.286 276.865,239.286 274.381 C 239.286 272.950,239.143 271.867,238.969 271.974 C 238.226 272.433,237.740 271.459,237.655 269.337 C 237.579 267.463,237.439 267.063,236.862 267.063 C 236.362 267.063,236.126 266.695,236.037 265.774 C 235.952 264.889,235.632 264.361,235.020 264.092 C 234.177 263.723,234.127 263.471,234.127 259.628 C 234.127 255.660,234.231 255.325,235.410 255.506 C 235.818 255.569,236.238 253.705,236.012 252.837 C 235.862 252.266,236.009 252.151,236.712 252.285 C 237.374 252.411,237.600 252.268,237.595 251.723 C 237.557 246.797,237.712 245.724,238.492 245.520 C 239.096 245.362,239.286 244.979,239.286 243.913 C 239.286 242.862,239.483 242.451,240.079 242.262 C 240.739 242.053,240.873 241.661,240.873 239.950 C 240.873 238.319,241.039 237.786,241.667 237.394 C 242.304 236.996,242.460 236.468,242.460 234.719 C 242.460 232.804,242.557 232.540,243.254 232.540 C 243.958 232.540,244.048 232.275,244.048 230.205 C 244.048 228.204,244.161 227.841,244.841 227.663 C 245.449 227.504,245.635 227.122,245.635 226.029 L 245.635 224.603 249.802 224.603 C 253.704 224.603,253.968 224.654,253.968 225.397 " stroke="none" fill="#4cc4c4" fill-rule="evenodd"></path><path id="path1" d="M58.234 22.122 C 62.436 22.187,69.311 22.187,73.512 22.122 C 77.713 22.058,74.276 22.006,65.873 22.006 C 57.470 22.006,54.033 22.058,58.234 22.122 M337.086 45.040 C 337.086 54.206,337.139 57.900,337.202 53.247 C 337.266 48.595,337.265 41.095,337.202 36.580 C 337.138 32.066,337.086 35.873,337.086 45.040 M234.235 31.746 C 234.235 32.728,234.312 33.130,234.407 32.639 C 234.502 32.148,234.502 31.344,234.407 30.853 C 234.312 30.362,234.235 30.764,234.235 31.746 M232.670 37.500 C 232.672 39.028,232.743 39.604,232.829 38.781 C 232.915 37.958,232.914 36.708,232.826 36.003 C 232.738 35.299,232.668 35.972,232.670 37.500 M231.079 44.048 C 231.079 45.466,231.151 46.047,231.239 45.337 C 231.327 44.628,231.327 43.467,231.239 42.758 C 231.151 42.049,231.079 42.629,231.079 44.048 M35.096 77.183 C 35.096 83.730,35.151 86.464,35.217 83.259 C 35.284 80.053,35.284 74.696,35.218 71.354 C 35.151 68.012,35.097 70.635,35.096 77.183 M231.079 68.651 C 231.079 70.069,231.151 70.650,231.239 69.940 C 231.327 69.231,231.327 68.070,231.239 67.361 C 231.151 66.652,231.079 67.232,231.079 68.651 M74.318 191.959 C 75.361 192.041,76.968 192.040,77.889 191.957 C 78.810 191.873,77.956 191.806,75.992 191.808 C 74.028 191.809,73.274 191.877,74.318 191.959 M92.230 202.579 C 92.230 206.944,92.288 208.784,92.359 206.668 C 92.430 204.552,92.431 200.980,92.360 198.731 C 92.289 196.483,92.231 198.214,92.230 202.579 M105.258 205.057 C 107.168 205.130,110.293 205.130,112.202 205.057 C 114.112 204.985,112.550 204.925,108.730 204.925 C 104.911 204.925,103.348 204.985,105.258 205.057 M175.510 218.056 C 175.513 219.147,175.590 219.546,175.682 218.943 C 175.773 218.340,175.770 217.447,175.676 216.959 C 175.582 216.471,175.507 216.964,175.510 218.056 M173.918 223.016 C 173.918 223.998,173.995 224.400,174.090 223.909 C 174.184 223.418,174.184 222.614,174.090 222.123 C 173.995 221.632,173.918 222.034,173.918 223.016 M187.987 276.874 C 188.692 276.961,189.942 276.963,190.765 276.877 C 191.588 276.791,191.012 276.719,189.484 276.718 C 187.956 276.716,187.283 276.786,187.987 276.874 M231.060 280.159 C 231.060 281.141,231.138 281.543,231.232 281.052 C 231.327 280.561,231.327 279.757,231.232 279.266 C 231.138 278.775,231.060 279.177,231.060 280.159 M250.535 301.984 C 250.535 303.839,250.604 304.598,250.687 303.671 C 250.771 302.743,250.771 301.225,250.687 300.298 C 250.604 299.370,250.535 300.129,250.535 301.984 M32.639 357.043 C 35.858 357.110,41.126 357.110,44.345 357.043 C 47.564 356.976,44.931 356.922,38.492 356.922 C 32.054 356.922,29.420 356.976,32.639 357.043 M56.074 358.630 C 58.651 358.699,62.758 358.699,65.201 358.629 C 67.644 358.560,65.536 358.503,60.516 358.503 C 55.496 358.504,53.497 358.561,56.074 358.630 M80.484 360.218 C 85.792 360.281,94.363 360.280,99.531 360.218 C 104.700 360.155,100.357 360.104,89.881 360.104 C 79.405 360.104,75.176 360.155,80.484 360.218 " stroke="none" fill="#50c4c4" fill-rule="evenodd"></path></g></svg>